<svg width="211" height="50" viewBox="0 0 211 50" fill="none" xmlns="http://www.w3.org/2000/svg">
<g clip-path="url(#clip0_1371_2501)">
<path d="M175.338 11.6667C177.436 11.6667 179.097 10 179.097 8.0702C179.097 6.14037 177.436 4.38599 175.338 4.38599C173.24 4.38599 171.58 6.05265 171.58 7.98248C171.58 9.9123 173.24 11.6667 175.338 11.6667Z" fill="black"/>
<path d="M93.7874 40.9649C85.4837 40.9649 79.4526 35.3509 79.4526 27.6316C79.4526 19.9123 85.4837 14.386 93.7874 14.386C97.8081 14.386 101.479 15.7018 104.101 18.0702C106.724 20.4386 108.122 23.8597 108.122 27.6316C108.122 31.4035 106.636 34.7369 104.101 37.193C101.479 39.7369 97.8081 40.9649 93.7874 40.9649ZM93.7874 20.2632C89.5044 20.2632 86.4452 23.3334 86.4452 27.7193C86.4452 32.1053 89.417 35.1755 93.7874 35.1755C98.1577 35.1755 101.13 32.193 101.13 27.7193C101.13 23.2456 98.1577 20.2632 93.7874 20.2632Z" fill="black"/>
<path d="M118.174 4.91235H111.269V40.6141H118.174V4.91235Z" fill="black"/>
<path d="M128.663 4.91235H121.758V40.6141H128.663V4.91235Z" fill="black"/>
<path d="M146.057 40.9649C137.753 40.9649 131.722 35.3509 131.722 27.6316C131.722 19.9123 137.753 14.386 146.057 14.386C150.078 14.386 153.749 15.7018 156.371 18.0702C158.993 20.4386 160.392 23.8597 160.392 27.6316C160.392 31.4035 158.906 34.7369 156.371 37.193C153.749 39.7369 150.078 40.9649 146.057 40.9649ZM146.057 20.2632C141.774 20.2632 138.715 23.3334 138.715 27.7193C138.715 32.1053 141.687 35.1755 146.057 35.1755C150.427 35.1755 153.399 32.193 153.399 27.7193C153.399 23.2456 150.515 20.2632 146.057 20.2632Z" fill="black"/>
<path d="M178.834 14.4736H171.929V40.7017H178.834V14.4736Z" fill="black"/>
<path d="M196.665 40.9649C188.362 40.9649 182.331 35.3509 182.331 27.6316C182.331 19.9123 188.362 14.386 196.665 14.386C200.686 14.386 204.357 15.7018 206.979 18.0702C209.601 20.4386 211 23.8597 211 27.6316C211 31.4035 209.514 34.7369 206.979 37.193C204.357 39.7369 200.686 40.9649 196.665 40.9649ZM196.665 20.2632C192.382 20.2632 189.323 23.3334 189.323 27.7193C189.323 32.1053 192.295 35.1755 196.665 35.1755C201.036 35.1755 204.007 32.193 204.007 27.7193C204.007 23.2456 201.036 20.2632 196.665 20.2632Z" fill="black"/>
<path d="M48.4233 50.0001V14.2983H55.3285V16.2282C57.6011 15.0878 60.1358 14.4738 62.6706 14.5615C66.6914 14.5615 70.3624 15.8773 72.9846 18.2457C75.6069 20.6141 77.0054 24.0352 77.0054 27.8071C77.0054 31.579 75.5194 34.9124 72.9846 37.3685C70.3624 39.8247 66.6914 41.1404 62.6706 41.1404C60.1358 41.1404 57.6011 40.6141 55.3285 39.3861V50.0001H48.4233ZM62.6706 20.2633C58.3877 20.2633 55.3285 23.3334 55.3285 27.7194C55.3285 32.1054 58.3003 35.1755 62.6706 35.1755C67.041 35.1755 70.0128 32.1931 70.0128 27.7194C70.1002 23.2457 67.1284 20.2633 62.6706 20.2633Z" fill="black"/>
<path d="M165.199 40.7018C164.587 40.7018 164.063 40.5264 163.538 40.1755C163.014 39.8246 162.664 39.386 162.402 38.8597C162.14 38.3334 162.14 37.7193 162.227 37.193C162.314 36.6667 162.664 36.1404 163.014 35.7018C163.451 35.2632 163.975 35 164.587 34.9123C165.199 34.8246 165.811 34.8246 166.335 35.0878C166.86 35.2632 167.384 35.7018 167.646 36.1404C167.996 36.579 168.171 37.193 168.171 37.7193C168.171 38.5088 167.821 39.2106 167.297 39.7369C166.772 40.3509 165.986 40.7018 165.199 40.7018Z" fill="black"/>
<path d="M39.158 7.89478H32.6025L36.0114 13.5965L39.158 7.89478Z" fill="#FFC127"/>
<path d="M42.8293 30.614L38.459 23.1579L24.4739 0L0 40.7018H13.111C14.8592 40.7018 16.6073 40.2632 18.0932 39.386C19.5791 38.5088 20.8902 37.3684 21.7643 35.8772L28.4946 24.6491L24.7361 18.4211L16.6073 32.0175C16.1703 32.807 15.471 33.4211 14.6843 33.8596C13.8977 34.2982 13.0236 34.5614 12.1495 34.5614H11.1881L24.4739 12.3684L41.4308 40.614H46.2382V36.1404L42.8293 30.614Z" fill="black"/>
</g>
<defs>
<clipPath id="clip0_1371_2501">
<rect width="211" height="50" fill="white"/>
</clipPath>
</defs>
</svg>
