<svg width="172" height="50" viewBox="0 0 172 50" fill="none" xmlns="http://www.w3.org/2000/svg">
<g clip-path="url(#clip0_1371_1009)">
<path d="M18.7661 8.02271V21.6921H6.20806V8.02271H0.25V40.6533H6.20968V27.4275H18.7645V40.6533H24.7258V8.02271H18.7661ZM43.8016 30.1066C43.8016 31.4145 43.2821 32.6688 42.3572 33.5936C41.4324 34.5185 40.1781 35.038 38.8702 35.038C37.5623 35.038 36.3079 34.5185 35.3831 33.5936C34.4583 32.6688 33.9387 31.4145 33.9387 30.1066V16.1292H28.2855V30.1066C28.2855 32.911 29.3995 35.6006 31.3826 37.5837C33.3656 39.5667 36.0552 40.6808 38.8597 40.6808C41.6641 40.6808 44.3537 39.5667 46.3368 37.5837C48.3198 35.6006 49.4339 32.911 49.4339 30.1066V16.1292H43.8016V30.1066ZM85.6903 17.5695C85.6903 14.7034 87.5855 13.7953 89.6613 13.7953C91.3355 13.7953 93.5452 15.0695 94.9919 16.6146L98.6936 12.2501C96.8452 9.75012 93.0968 8.02271 90.0274 8.02271C83.8935 8.02271 79.4581 11.6146 79.4581 17.5695C79.4581 28.6179 92.9613 25.1114 92.9613 31.2953C92.9613 33.2017 91.1097 34.8856 88.9903 34.8856C85.6468 34.8856 84.5629 33.2517 83.0274 31.5227L78.9177 35.7953C81.5468 39.0211 84.7887 40.6598 88.671 40.6598C94.4984 40.6598 99.1855 37.0243 99.1855 31.3404C99.1855 19.0759 85.6806 22.8872 85.6806 17.5695M169.229 35.4404C165.889 35.4404 164.939 33.9953 164.939 31.7824V21.984H170.132V17.0195H164.939V10.4695L159.206 13.0421V33.0001C159.206 38.105 162.729 40.6775 167.558 40.6775C168.316 40.6904 169.074 40.6292 169.819 40.4969L171.218 35.3485C170.587 35.3921 169.863 35.4356 169.229 35.4356M65.321 16.2921C62.521 16.2921 60.5661 17.105 58.6758 18.9582V8.21787H53.0145V28.1259C53.0145 35.5775 58.4016 40.684 64.4565 40.684C71.1726 40.684 77.0806 35.4872 77.0806 28.4904C77.0806 21.5808 71.6436 16.2969 65.321 16.2969M65.2855 34.9856C64.4417 34.9856 63.6063 34.8194 62.8267 34.4965C62.0472 34.1736 61.3389 33.7004 60.7423 33.1038C60.1457 32.5072 59.6724 31.7989 59.3496 31.0194C59.0267 30.2398 58.8605 29.4044 58.8605 28.5606C58.8605 27.7169 59.0267 26.8814 59.3496 26.1019C59.6724 25.3224 60.1457 24.6141 60.7423 24.0174C61.3389 23.4208 62.0472 22.9476 62.8267 22.6247C63.6063 22.3018 64.4417 22.1356 65.2855 22.1356C66.9895 22.1356 68.6237 22.8125 69.8286 24.0174C71.0336 25.2224 71.7105 26.8566 71.7105 28.5606C71.7105 30.2646 71.0336 31.8988 69.8286 33.1038C68.6237 34.3087 66.9895 34.9856 65.2855 34.9856ZM126.805 28.1937C126.805 21.184 120.91 16.0001 114.181 16.0001C108.127 16.0001 102.739 21.105 102.739 28.5582V48.4775H108.4V37.7227C110.287 39.5727 112.245 40.3888 115.042 40.3888C121.365 40.3888 126.805 35.105 126.805 28.1937ZM121.444 28.1227C121.444 29.8267 120.767 31.4609 119.562 32.6659C118.357 33.8708 116.723 34.5477 115.019 34.5477C113.315 34.5477 111.68 33.8708 110.475 32.6659C109.27 31.4609 108.594 29.8267 108.594 28.1227C108.594 26.4187 109.27 24.7845 110.475 23.5795C111.68 22.3746 113.315 21.6977 115.019 21.6977C116.723 21.6977 118.357 22.3746 119.562 23.5795C120.767 24.7845 121.444 26.4187 121.444 28.1227Z" fill="#33475B"/>
<path d="M145.098 15.7259V10.0371C145.85 9.68581 146.487 9.12818 146.934 8.42918C147.381 7.73017 147.62 6.91854 147.624 6.08876V5.95811C147.624 3.53876 145.663 1.57747 143.244 1.57747H143.113C141.951 1.57747 140.837 2.039 140.015 2.86053C139.194 3.68206 138.732 4.7963 138.732 5.95811V6.08876C138.736 6.91854 138.976 7.73017 139.423 8.42918C139.87 9.12818 140.506 9.68581 141.258 10.0371V15.7259C139.098 16.0567 137.063 16.9525 135.36 18.3226L119.758 6.17102C119.869 5.7694 119.928 5.3565 119.934 4.94199C119.936 3.9657 119.648 3.01079 119.107 2.19802C118.566 1.38525 117.797 0.751149 116.895 0.375922C115.994 0.000693768 115.002 -0.0988028 114.044 0.0900174C113.086 0.278838 112.206 0.747491 111.514 1.4367C110.823 2.12591 110.351 3.0047 110.159 3.96193C109.967 4.91916 110.064 5.91181 110.436 6.81433C110.808 7.71684 111.44 8.48868 112.251 9.0322C113.062 9.57572 114.016 9.86651 114.992 9.86779C115.846 9.86377 116.684 9.63575 117.423 9.2065L132.786 21.1613C131.405 23.2463 130.685 25.6986 130.719 28.1988C130.753 30.6989 131.54 33.1308 132.976 35.1775L128.303 39.8517C127.926 39.7309 127.532 39.6667 127.136 39.6613C126.334 39.662 125.551 39.9002 124.885 40.3458C124.219 40.7914 123.7 41.4245 123.393 42.165C123.087 42.9054 123.007 43.7201 123.164 44.5061C123.32 45.292 123.706 46.014 124.273 46.5806C124.839 47.1473 125.561 47.5333 126.347 47.6898C127.133 47.8462 127.948 47.7663 128.688 47.4599C129.429 47.1535 130.062 46.6345 130.508 45.9684C130.953 45.3024 131.191 44.5192 131.192 43.7178C131.187 43.3213 131.123 42.9277 131.002 42.55L135.624 37.9259C137.132 39.0863 138.885 39.8864 140.749 40.2647C142.613 40.6431 144.54 40.5897 146.38 40.1086C148.221 39.6275 149.927 38.7315 151.367 37.4892C152.808 36.247 153.945 34.6914 154.692 32.9417C155.439 31.1921 155.775 29.2947 155.675 27.3949C155.575 25.4952 155.042 23.6435 154.116 21.9818C153.19 20.32 151.896 18.8923 150.333 17.8079C148.77 16.7235 146.979 16.0113 145.098 15.7259ZM143.182 34.4355C142.328 34.459 141.478 34.3111 140.682 34.0004C139.885 33.6897 139.16 33.2226 138.547 32.6266C137.934 32.0307 137.448 31.318 137.115 30.5307C136.783 29.7434 136.611 28.8974 136.611 28.0428C136.611 27.1882 136.783 26.3422 137.115 25.5549C137.448 24.7676 137.934 24.0549 138.547 23.459C139.16 22.863 139.885 22.3959 140.682 22.0852C141.478 21.7745 142.328 21.6265 143.182 21.65C144.838 21.708 146.407 22.4063 147.558 23.5979C148.709 24.7895 149.353 26.3813 149.354 28.0381C149.355 29.6949 148.712 31.2873 147.562 32.48C146.412 33.6728 144.845 34.3727 143.189 34.4323" fill="#FF7A59"/>
</g>
<defs>
<clipPath id="clip0_1371_1009">
<rect width="170.968" height="50" fill="white" transform="translate(0.25)"/>
</clipPath>
</defs>
</svg>
