<svg width="207" height="50" viewBox="0 0 207 50" fill="none" xmlns="http://www.w3.org/2000/svg">
<g clip-path="url(#clip0_1371_998)">
<path d="M203.756 46.7722C203.883 46.7735 204.009 46.7489 204.125 46.6999C204.242 46.651 204.347 46.5787 204.435 46.4876C204.522 46.3965 204.59 46.2886 204.634 46.1705C204.677 46.0523 204.696 45.9266 204.689 45.8009C204.689 45.1121 204.27 44.783 203.412 44.783H202.025V48.3895H202.546V46.8174H203.188L203.202 46.8365L204.197 48.3895H204.755L203.685 46.7822L203.756 46.7722ZM203.153 46.411H202.548V45.1917H203.315C203.711 45.1917 204.162 45.256 204.162 45.7711C204.162 46.3635 203.705 46.411 203.15 46.411" fill="#0A66C2"/>
<path d="M0.5 7.33789H8.20117V35.1982H22.4583V42.2566H0.5V7.33789Z" fill="#0A66C2"/>
<path d="M25.8632 18.5807H33.2615V42.2436H25.8632V18.5807ZM29.5623 6.81665C30.4111 6.8168 31.2408 7.06692 31.9465 7.53538C32.6522 8.00384 33.2022 8.6696 33.5269 9.44847C33.8516 10.2274 33.9365 11.0844 33.7708 11.9112C33.6051 12.7379 33.1963 13.4974 32.5961 14.0934C31.9958 14.6895 31.2311 15.0953 30.3986 15.2597C29.5661 15.4241 28.7032 15.3397 27.919 15.0171C27.1348 14.6944 26.4646 14.1481 25.993 13.4471C25.5215 12.7462 25.2698 11.9221 25.2698 11.0791C25.2698 10.5193 25.3808 9.96496 25.5965 9.44777C25.8123 8.93057 26.1285 8.46064 26.5271 8.06483C26.9257 7.66901 27.3989 7.35506 27.9197 7.14089C28.4405 6.92673 28.9987 6.81655 29.5623 6.81665Z" fill="#0A66C2"/>
<path d="M64.2095 7.33252H71.6078V28.2009L79.9925 18.57H89.0632L79.3529 29.5251L88.8589 42.2535H79.5602L71.7064 30.5568H71.6093V42.252H64.211L64.2095 7.33252Z" fill="#0A66C2"/>
<path d="M37.3635 18.5829H44.4682V21.8166H44.5691C45.2788 20.6091 46.3053 19.6158 47.5391 18.9425C48.773 18.2693 50.1677 17.9416 51.5744 17.9943C59.0768 17.9943 60.4578 22.8966 60.4578 29.2654V42.2419H53.0595V30.7373C53.0595 27.991 53.0086 24.4611 49.2062 24.4611C45.3606 24.4611 44.7672 27.4514 44.7672 30.5375V42.2388H37.3689L37.3635 18.5829Z" fill="#0A66C2"/>
<path d="M104.643 27.6598C104.658 27.0637 104.55 26.4709 104.326 25.9174C104.103 25.3639 103.769 24.8612 103.344 24.4397C102.92 24.0182 102.413 23.6867 101.856 23.4653C101.298 23.2439 100.701 23.1372 100.101 23.1517C98.8085 23.0718 97.536 23.4996 96.558 24.3429C95.58 25.1862 94.9749 26.3775 94.8731 27.6598H104.643ZM110.91 38.1457C109.681 39.6264 108.135 40.8169 106.386 41.6312C104.636 42.4454 102.726 42.863 100.793 42.8536C93.395 42.8536 87.4717 37.949 87.4717 30.354C87.4717 22.759 93.3942 17.8567 100.793 17.8567C107.708 17.8567 112.045 22.7552 112.045 30.354V32.6578H94.8731C95.0869 33.9644 95.7689 35.1502 96.7935 35.9968C97.8181 36.8434 99.1163 37.2937 100.449 37.2647C101.502 37.2583 102.536 36.9903 103.459 36.4853C104.381 35.9802 105.161 35.2541 105.729 34.3731L110.91 38.1457Z" fill="#0A66C2"/>
<path d="M127.466 24.3003C123.767 24.3003 121.547 26.7534 121.547 30.3278C121.547 33.9022 123.766 36.3576 127.466 36.3576C131.166 36.3576 133.39 33.9083 133.39 30.3278C133.39 26.7473 131.169 24.3003 127.466 24.3003ZM140.201 42.2388H133.39V39.1007H133.289C132.434 40.2422 131.326 41.1723 130.05 41.8185C128.774 42.4648 127.366 42.8098 125.934 42.8267C118.825 42.8267 114.143 37.7315 114.143 30.5261C114.143 23.9085 118.286 17.832 125.098 17.832C128.16 17.832 131.02 18.664 132.698 20.9701H132.795V7.33008H140.2L140.201 42.2388Z" fill="#0A66C2"/>
<path d="M190.146 42.2528H182.748V30.7459C182.748 28.0019 182.699 24.4697 178.9 24.4697C175.047 24.4697 174.457 27.4593 174.457 30.5461V42.252H167.059V18.5891H174.161V21.8229H174.261C174.972 20.6159 175.999 19.623 177.233 18.9499C178.467 18.2768 179.862 17.9487 181.268 18.0006C188.767 18.0006 190.149 22.8991 190.149 29.2717L190.146 42.2528ZM158.711 15.3546C157.862 15.3548 157.032 15.1048 156.326 14.6364C155.62 14.168 155.069 13.5022 154.744 12.7231C154.419 11.944 154.334 11.0867 154.5 10.2595C154.665 9.43233 155.074 8.67248 155.674 8.07604C156.274 7.47961 157.039 7.07336 157.872 6.90869C158.705 6.74401 159.568 6.8283 160.353 7.15089C161.137 7.47348 161.808 8.01989 162.28 8.72101C162.752 9.42214 163.004 10.2465 163.004 11.0898C163.004 11.6498 162.893 12.2043 162.677 12.7217C162.462 13.239 162.146 13.7091 161.747 14.1052C161.348 14.5012 160.875 14.8154 160.354 15.0297C159.833 15.2441 159.275 15.3545 158.711 15.3546ZM162.41 42.2528H155.004V18.5891H162.41V42.2528ZM193.835 0.00313443H151.287C150.321 -0.00768925 149.391 0.362712 148.7 1.03294C148.009 1.70318 147.614 2.6184 147.602 3.57751V46.0101C147.614 46.9697 148.008 47.8855 148.699 48.5565C149.39 49.2274 150.321 49.5985 151.287 49.5883H193.835C194.803 49.6004 195.736 49.2303 196.43 48.5594C197.123 47.8885 197.521 46.9716 197.534 46.0101V3.57445C197.52 2.61344 197.123 1.69717 196.429 1.02696C195.736 0.35674 194.802 -0.012603 193.835 7.16199e-05" fill="#0A66C2"/>
<path d="M203.216 43.1765C202.316 43.1851 201.456 43.5474 200.824 44.1841C200.192 44.8208 199.84 45.6801 199.844 46.5741C199.848 47.4681 200.209 48.324 200.847 48.9547C201.485 49.5853 202.349 49.9394 203.249 49.9394C204.149 49.9394 205.012 49.5853 205.65 48.9547C206.289 48.324 206.649 47.4681 206.654 46.5741C206.658 45.6801 206.306 44.8208 205.674 44.1841C205.042 43.5474 204.182 43.1851 203.282 43.1765H203.216ZM203.216 49.5522C202.626 49.562 202.046 49.3976 201.549 49.08C201.053 48.7623 200.662 48.3056 200.427 47.7677C200.192 47.2297 200.123 46.6345 200.229 46.0575C200.334 45.4805 200.61 44.9476 201.02 44.526C201.431 44.1045 201.958 43.8134 202.535 43.6894C203.112 43.5654 203.714 43.6142 204.263 43.8296C204.812 44.0449 205.285 44.4172 205.621 44.8993C205.957 45.3815 206.142 45.9518 206.151 46.5381C206.151 46.555 206.151 46.571 206.151 46.5879C206.168 47.3571 205.876 48.1013 205.34 48.6569C204.804 49.2125 204.068 49.534 203.294 49.5507H203.217" fill="#0A66C2"/>
</g>
<defs>
<clipPath id="clip0_1371_998">
<rect width="206.154" height="50" fill="white" transform="translate(0.5)"/>
</clipPath>
</defs>
</svg>
