<svg width="1440" height="470" viewBox="0 0 1440 470" fill="none" xmlns="http://www.w3.org/2000/svg">
<g clip-path="url(#clip0_1371_1520)">
<rect width="1440" height="470" fill="#0064E9"/>
<g style="mix-blend-mode:overlay" opacity="0.3">
<g clip-path="url(#clip1_1371_1520)">
<path d="M-2.02973 40.1941C-0.462461 40.1819 1.03716 39.5532 2.14543 38.4437C3.25369 37.3342 3.8817 35.8329 3.8939 34.2639C3.90005 33.4812 3.75138 32.705 3.45644 31.9802C3.16151 31.2553 2.72616 30.596 2.17549 30.0404C1.62481 29.4848 0.969711 29.0438 0.247966 28.7428C-0.473779 28.4419 -1.24789 28.287 -2.02973 28.287C-3.61315 28.287 -5.13171 28.9167 -6.25135 30.0376C-7.37099 31.1585 -8 32.6787 -8 34.2639C-7.98769 35.841 -7.35326 37.3493 -6.23495 38.4601C-5.11663 39.5709 -3.6051 40.1942 -2.02973 40.1941Z" fill="black"/>
<path d="M65.1358 40.1941C68.4331 40.1941 71.1061 37.5182 71.1061 34.2172C71.1061 30.9163 68.4331 28.2403 65.1358 28.2403C61.8385 28.2403 59.1655 30.9163 59.1655 34.2172C59.1655 37.5182 61.8385 40.1941 65.1358 40.1941Z" fill="black"/>
<path d="M132.301 40.1941C133.869 40.1819 135.368 39.5532 136.476 38.4437C137.585 37.3342 138.213 35.8329 138.225 34.2639C138.231 33.4812 138.082 32.705 137.788 31.9802C137.493 31.2553 137.057 30.596 136.507 30.0404C135.956 29.4848 135.301 29.0438 134.579 28.7428C133.857 28.4419 133.083 28.287 132.301 28.287C131.517 28.287 130.741 28.4416 130.017 28.742C129.292 29.0423 128.634 29.4826 128.08 30.0376C127.525 30.5926 127.086 31.2515 126.786 31.9766C126.485 32.7018 126.331 33.479 126.331 34.2639C126.343 35.841 126.978 37.3493 128.096 38.4601C129.214 39.5709 130.726 40.1942 132.301 40.1941Z" fill="black"/>
<path d="M199.42 40.1941C200.996 40.1942 202.507 39.5709 203.626 38.4601C204.744 37.3493 205.378 35.841 205.391 34.2639C205.403 33.4734 205.258 32.6883 204.963 31.9549C204.667 31.2215 204.229 30.5546 203.673 29.9934C203.116 29.4321 202.454 28.9879 201.723 28.6869C200.993 28.3858 200.21 28.234 199.42 28.2403C198.636 28.2464 197.861 28.4071 197.139 28.7131C196.417 29.0191 195.762 29.4645 195.212 30.0239C194.662 30.5832 194.228 31.2456 193.933 31.9731C193.639 32.7006 193.491 33.479 193.497 34.2639C193.509 35.8329 194.137 37.3342 195.245 38.4437C196.353 39.5532 197.853 40.1819 199.42 40.1941Z" fill="black"/>
<path d="M266.632 40.1941C268.2 40.1819 269.699 39.5532 270.808 38.4437C271.916 37.3342 272.544 35.8329 272.556 34.2639C272.562 33.4812 272.413 32.705 272.119 31.9802C271.824 31.2553 271.388 30.596 270.838 30.0404C270.287 29.4848 269.632 29.0438 268.91 28.7428C268.188 28.4419 267.414 28.287 266.632 28.287C265.049 28.287 263.53 28.9167 262.411 30.0376C261.291 31.1585 260.662 32.6787 260.662 34.2639C260.674 35.841 261.309 37.3493 262.427 38.4601C263.545 39.5709 265.057 40.1942 266.632 40.1941Z" fill="black"/>
<path d="M333.798 40.1941C335.365 40.1819 336.865 39.5532 337.973 38.4437C339.081 37.3342 339.709 35.8329 339.722 34.2639C339.728 33.4812 339.579 32.705 339.284 31.9802C338.989 31.2553 338.554 30.596 338.003 30.0404C337.452 29.4848 336.797 29.0438 336.076 28.7428C335.354 28.4419 334.58 28.287 333.798 28.287C332.215 28.287 330.696 28.9167 329.576 30.0376C328.457 31.1585 327.828 32.6787 327.828 34.2639C327.84 35.841 328.474 37.3493 329.593 38.4601C330.711 39.5709 332.223 40.1942 333.798 40.1941Z" fill="black"/>
<path d="M400.963 40.1941C404.261 40.1941 406.934 37.5182 406.934 34.2172C406.934 30.9163 404.261 28.2403 400.963 28.2403C397.666 28.2403 394.993 30.9163 394.993 34.2172C394.993 37.5182 397.666 40.1941 400.963 40.1941Z" fill="black"/>
<path d="M468.129 40.1941C469.696 40.1819 471.196 39.5532 472.304 38.4437C473.412 37.3342 474.04 35.8329 474.053 34.2639C474.059 33.4812 473.91 32.705 473.615 31.9802C473.32 31.2553 472.885 30.596 472.334 30.0404C471.784 29.4848 471.128 29.0438 470.407 28.7428C469.685 28.4419 468.911 28.287 468.129 28.287C466.546 28.287 465.027 28.9167 463.907 30.0376C462.788 31.1585 462.159 32.6787 462.159 34.2639C462.171 35.841 462.805 37.3493 463.924 38.4601C465.042 39.5709 466.554 40.1942 468.129 40.1941Z" fill="black"/>
<path d="M535.248 40.1941C536.823 40.1942 538.335 39.5709 539.453 38.4601C540.572 37.3493 541.206 35.841 541.218 34.2639C541.231 33.4734 541.085 32.6883 540.79 31.9549C540.495 31.2215 540.057 30.5546 539.5 29.9934C538.944 29.4321 538.281 28.9879 537.551 28.6869C536.821 28.3858 536.038 28.234 535.248 28.2403C534.464 28.2464 533.689 28.4071 532.967 28.7131C532.245 29.0191 531.59 29.4645 531.04 30.0239C530.49 30.5832 530.055 31.2456 529.761 31.9731C529.467 32.7006 529.318 33.479 529.324 34.2639C529.337 35.8329 529.965 37.3342 531.073 38.4437C532.181 39.5532 533.681 40.1819 535.248 40.1941Z" fill="black"/>
<path d="M602.46 40.1941C604.027 40.1819 605.527 39.5532 606.635 38.4437C607.743 37.3342 608.371 35.8329 608.384 34.2639C608.39 33.4812 608.241 32.705 607.946 31.9802C607.651 31.2553 607.216 30.596 606.665 30.0404C606.115 29.4848 605.459 29.0438 604.738 28.7428C604.016 28.4419 603.242 28.287 602.46 28.287C601.676 28.287 600.9 28.4416 600.175 28.742C599.451 29.0423 598.793 29.4826 598.238 30.0376C597.684 30.5926 597.244 31.2515 596.944 31.9766C596.644 32.7018 596.49 33.479 596.49 34.2639C596.502 35.841 597.137 37.3493 598.255 38.4601C599.373 39.5709 600.885 40.1942 602.46 40.1941Z" fill="black"/>
<path d="M669.626 40.1941C671.193 40.1819 672.692 39.5532 673.801 38.4437C674.909 37.3342 675.537 35.8329 675.549 34.2639C675.555 33.4812 675.407 32.705 675.112 31.9802C674.817 31.2553 674.381 30.596 673.831 30.0404C673.28 29.4848 672.625 29.0438 671.903 28.7428C671.182 28.4419 670.407 28.287 669.626 28.287C668.842 28.287 668.065 28.4416 667.341 28.742C666.616 29.0423 665.958 29.4826 665.404 30.0376C664.85 30.5926 664.41 31.2515 664.11 31.9766C663.81 32.7018 663.655 33.479 663.655 34.2639C663.668 35.841 664.302 37.3493 665.42 38.4601C666.539 39.5709 668.05 40.1942 669.626 40.1941Z" fill="black"/>
<path d="M736.792 40.1941C740.089 40.1941 742.762 37.5182 742.762 34.2172C742.762 30.9163 740.089 28.2403 736.792 28.2403C733.494 28.2403 730.821 30.9163 730.821 34.2172C730.821 37.5182 733.494 40.1941 736.792 40.1941Z" fill="black"/>
<path d="M803.957 40.1941C805.524 40.1819 807.024 39.5532 808.132 38.4437C809.241 37.3342 809.869 35.8329 809.881 34.2639C809.887 33.4812 809.738 32.705 809.443 31.9802C809.148 31.2553 808.713 30.596 808.162 30.0404C807.612 29.4848 806.957 29.0438 806.235 28.7428C805.513 28.4419 804.739 28.287 803.957 28.287C802.374 28.287 800.855 28.9167 799.735 30.0376C798.616 31.1585 797.987 32.6787 797.987 34.2639C797.999 35.841 798.634 37.3493 799.752 38.4601C800.87 39.5709 802.382 40.1942 803.957 40.1941Z" fill="black"/>
<path d="M871.076 40.1941C872.651 40.1942 874.163 39.5709 875.281 38.4601C876.399 37.3493 877.034 35.841 877.046 34.2639C877.058 33.4734 876.913 32.6883 876.618 31.9549C876.323 31.2215 875.884 30.5546 875.328 29.9934C874.772 29.4321 874.109 28.9879 873.379 28.6869C872.648 28.3858 871.865 28.234 871.076 28.2403C870.292 28.2464 869.517 28.4071 868.795 28.7131C868.072 29.0191 867.418 29.4645 866.868 30.0239C866.318 30.5832 865.883 31.2456 865.589 31.9731C865.294 32.7006 865.146 33.479 865.152 34.2639C865.164 35.8329 865.792 37.3342 866.901 38.4437C868.009 39.5532 869.508 40.1819 871.076 40.1941Z" fill="black"/>
<path d="M938.288 40.1941C939.855 40.1819 941.355 39.5532 942.463 38.4437C943.572 37.3342 944.2 35.8329 944.212 34.2639C944.218 33.4812 944.069 32.705 943.774 31.9802C943.479 31.2553 943.044 30.596 942.493 30.0404C941.943 29.4848 941.288 29.0438 940.566 28.7428C939.844 28.4419 939.07 28.287 938.288 28.287C936.705 28.287 935.186 28.9167 934.066 30.0376C932.947 31.1585 932.318 32.6787 932.318 34.2639C932.33 35.841 932.965 37.3493 934.083 38.4601C935.201 39.5709 936.713 40.1942 938.288 40.1941Z" fill="black"/>
<path d="M1005.45 40.1941C1007.02 40.1819 1008.52 39.5532 1009.63 38.4437C1010.74 37.3342 1011.37 35.8329 1011.38 34.2639C1011.38 33.4812 1011.23 32.705 1010.94 31.9802C1010.64 31.2553 1010.21 30.596 1009.66 30.0404C1009.11 29.4848 1008.45 29.0438 1007.73 28.7428C1007.01 28.4419 1006.24 28.287 1005.45 28.287C1003.87 28.287 1002.35 28.9167 1001.23 30.0376C1000.11 31.1585 999.483 32.6787 999.483 34.2639C999.496 35.841 1000.13 37.3493 1001.25 38.4601C1002.37 39.5709 1003.88 40.1942 1005.45 40.1941Z" fill="black"/>
<path d="M1072.62 40.1941C1075.92 40.1941 1078.59 37.5182 1078.59 34.2172C1078.59 30.9163 1075.92 28.2403 1072.62 28.2403C1069.32 28.2403 1066.65 30.9163 1066.65 34.2172C1066.65 37.5182 1069.32 40.1941 1072.62 40.1941Z" fill="black"/>
<path d="M1139.78 40.1941C1141.35 40.1819 1142.85 39.5532 1143.96 38.4437C1145.07 37.3342 1145.7 35.8329 1145.71 34.2639C1145.71 33.4812 1145.57 32.705 1145.27 31.9802C1144.98 31.2553 1144.54 30.596 1143.99 30.0404C1143.44 29.4848 1142.78 29.0438 1142.06 28.7428C1141.34 28.4419 1140.57 28.287 1139.78 28.287C1138.2 28.287 1136.68 28.9167 1135.56 30.0376C1134.44 31.1585 1133.81 32.6787 1133.81 34.2639C1133.83 35.841 1134.46 37.3493 1135.58 38.4601C1136.7 39.5709 1138.21 40.1942 1139.78 40.1941Z" fill="black"/>
<path d="M1206.9 40.1941C1208.48 40.1942 1209.99 39.5709 1211.11 38.4601C1212.23 37.3493 1212.86 35.841 1212.87 34.2639C1212.89 33.4734 1212.74 32.6883 1212.45 31.9549C1212.15 31.2215 1211.71 30.5546 1211.16 29.9934C1210.6 29.4321 1209.94 28.9879 1209.21 28.6869C1208.48 28.3858 1207.69 28.234 1206.9 28.2403C1206.12 28.2464 1205.34 28.4071 1204.62 28.7131C1203.9 29.0191 1203.25 29.4645 1202.7 30.0239C1202.15 30.5832 1201.71 31.2456 1201.42 31.9731C1201.12 32.7006 1200.97 33.479 1200.98 34.2639C1200.99 35.8329 1201.62 37.3342 1202.73 38.4437C1203.84 39.5532 1205.34 40.1819 1206.9 40.1941Z" fill="black"/>
<path d="M1274.12 40.1941C1275.68 40.1819 1277.18 39.5532 1278.29 38.4437C1279.4 37.3342 1280.03 35.8329 1280.04 34.2639C1280.05 33.4812 1279.9 32.705 1279.6 31.9802C1279.31 31.2553 1278.87 30.596 1278.32 30.0404C1277.77 29.4848 1277.12 29.0438 1276.39 28.7428C1275.67 28.4419 1274.9 28.287 1274.12 28.287C1273.33 28.287 1272.56 28.4416 1271.83 28.742C1271.11 29.0423 1270.45 29.4826 1269.89 30.0376C1269.34 30.5926 1268.9 31.2515 1268.6 31.9766C1268.3 32.7018 1268.15 33.479 1268.15 34.2639C1268.16 35.841 1268.79 37.3493 1269.91 38.4601C1271.03 39.5709 1272.54 40.1942 1274.12 40.1941Z" fill="black"/>
<path d="M1341.28 40.1941C1342.85 40.1819 1344.35 39.5532 1345.46 38.4437C1346.56 37.3342 1347.19 35.8329 1347.2 34.2639C1347.21 33.4812 1347.06 32.705 1346.77 31.9802C1346.47 31.2553 1346.04 30.596 1345.49 30.0404C1344.94 29.4848 1344.28 29.0438 1343.56 28.7428C1342.84 28.4419 1342.06 28.287 1341.28 28.287C1339.7 28.287 1338.18 28.9167 1337.06 30.0376C1335.94 31.1585 1335.31 32.6787 1335.31 34.2639C1335.32 35.841 1335.96 37.3493 1337.08 38.4601C1338.19 39.5709 1339.71 40.1942 1341.28 40.1941Z" fill="black"/>
<path d="M1408.45 40.1941C1411.74 40.1941 1414.42 37.5182 1414.42 34.2172C1414.42 30.9163 1411.74 28.2403 1408.45 28.2403C1405.15 28.2403 1402.48 30.9163 1402.48 34.2172C1402.48 37.5182 1405.15 40.1941 1408.45 40.1941Z" fill="black"/>
<path d="M31.5064 107.434C33.0817 107.422 34.5883 106.787 35.6979 105.667C36.8075 104.548 37.4301 103.035 37.43 101.458C37.4362 100.675 37.2875 99.8987 36.9926 99.1738C36.6976 98.4489 36.2623 97.7896 35.7116 97.234C35.1609 96.6784 34.5058 96.2374 33.7841 95.9364C33.0624 95.6355 32.2882 95.4806 31.5064 95.4806C29.923 95.4806 28.4044 96.1103 27.2848 97.2312C26.1651 98.3521 25.5361 99.8723 25.5361 101.458C25.5361 102.242 25.6906 103.02 25.9906 103.745C26.2906 104.47 26.7304 105.129 27.2848 105.684C27.8392 106.239 28.4973 106.679 29.2217 106.979C29.946 107.28 30.7224 107.434 31.5064 107.434Z" fill="black"/>
<path d="M98.7188 107.434C99.8996 107.434 101.054 107.084 102.036 106.427C103.018 105.77 103.783 104.837 104.235 103.745C104.686 102.653 104.805 101.451 104.574 100.291C104.344 99.1321 103.775 98.0671 102.94 97.2312C102.105 96.3953 101.042 95.8261 99.8835 95.5954C98.7254 95.3648 97.525 95.4832 96.4341 95.9356C95.3432 96.3879 94.4107 97.154 93.7547 98.1369C93.0987 99.1198 92.7485 100.275 92.7485 101.458C92.7485 103.043 93.3775 104.563 94.4972 105.684C95.6168 106.805 97.1354 107.434 98.7188 107.434Z" fill="black"/>
<path d="M165.884 107.434C167.065 107.434 168.219 107.084 169.201 106.427C170.183 105.77 170.948 104.837 171.4 103.745C171.852 102.653 171.97 101.451 171.74 100.291C171.51 99.1321 170.941 98.0671 170.106 97.2312C169.271 96.3953 168.207 95.8261 167.049 95.5954C165.891 95.3648 164.691 95.4832 163.6 95.9356C162.509 96.3879 161.576 97.154 160.92 98.1369C160.264 99.1198 159.914 100.275 159.914 101.458C159.914 103.043 160.543 104.563 161.663 105.684C162.782 106.805 164.301 107.434 165.884 107.434Z" fill="black"/>
<path d="M233.05 107.434C234.231 107.434 235.385 107.084 236.367 106.427C237.349 105.77 238.114 104.837 238.566 103.745C239.018 102.653 239.136 101.451 238.905 100.291C238.675 99.1321 238.106 98.0671 237.271 97.2312C236.437 96.3953 235.373 95.8261 234.215 95.5954C233.056 95.3648 231.856 95.4832 230.765 95.9356C229.674 96.3879 228.742 97.154 228.086 98.1369C227.43 99.1198 227.08 100.275 227.08 101.458C227.08 103.043 227.709 104.563 228.828 105.684C229.948 106.805 231.466 107.434 233.05 107.434Z" fill="black"/>
<path d="M300.215 107.434C301.396 107.434 302.55 107.084 303.532 106.427C304.514 105.77 305.279 104.837 305.731 103.745C306.183 102.653 306.301 101.451 306.071 100.291C305.841 99.1321 305.272 98.0671 304.437 97.2312C303.602 96.3953 302.538 95.8261 301.38 95.5954C300.222 95.3648 299.022 95.4832 297.931 95.9356C296.84 96.3879 295.907 97.154 295.251 98.1369C294.595 99.1198 294.245 100.275 294.245 101.458C294.245 103.043 294.874 104.563 295.994 105.684C297.113 106.805 298.632 107.434 300.215 107.434Z" fill="black"/>
<path d="M367.334 107.434C368.515 107.434 369.669 107.084 370.651 106.427C371.633 105.77 372.398 104.837 372.85 103.745C373.302 102.653 373.42 101.451 373.19 100.291C372.959 99.1321 372.391 98.0671 371.556 97.2312C370.721 96.3953 369.657 95.8261 368.499 95.5954C367.341 95.3648 366.14 95.4832 365.049 95.9356C363.958 96.3879 363.026 97.154 362.37 98.1369C361.714 99.1198 361.364 100.275 361.364 101.458C361.364 103.043 361.993 104.563 363.112 105.684C364.232 106.805 365.751 107.434 367.334 107.434Z" fill="black"/>
<path d="M434.546 107.434C435.727 107.434 436.882 107.084 437.863 106.427C438.845 105.77 439.61 104.837 440.062 103.745C440.514 102.653 440.632 101.451 440.402 100.291C440.172 99.1321 439.603 98.0671 438.768 97.2312C437.933 96.3953 436.869 95.8261 435.711 95.5954C434.553 95.3648 433.353 95.4832 432.262 95.9356C431.171 96.3879 430.238 97.154 429.582 98.1369C428.926 99.1198 428.576 100.275 428.576 101.458C428.576 103.043 429.205 104.563 430.325 105.684C431.444 106.805 432.963 107.434 434.546 107.434Z" fill="black"/>
<path d="M501.712 107.434C502.893 107.434 504.047 107.084 505.029 106.427C506.011 105.77 506.776 104.837 507.228 103.745C507.68 102.653 507.798 101.451 507.568 100.291C507.337 99.1321 506.769 98.0671 505.934 97.2312C505.099 96.3953 504.035 95.8261 502.877 95.5954C501.719 95.3648 500.518 95.4832 499.427 95.9356C498.336 96.3879 497.404 97.154 496.748 98.1369C496.092 99.1198 495.742 100.275 495.742 101.458C495.742 103.043 496.371 104.563 497.49 105.684C498.61 106.805 500.129 107.434 501.712 107.434Z" fill="black"/>
<path d="M568.877 107.434C570.058 107.434 571.213 107.084 572.194 106.427C573.176 105.77 573.941 104.837 574.393 103.745C574.845 102.653 574.963 101.451 574.733 100.291C574.503 99.1321 573.934 98.0671 573.099 97.2312C572.264 96.3953 571.2 95.8261 570.042 95.5954C568.884 95.3648 567.684 95.4832 566.593 95.9356C565.502 96.3879 564.569 97.154 563.913 98.1369C563.257 99.1198 562.907 100.275 562.907 101.458C562.907 103.043 563.536 104.563 564.656 105.684C565.776 106.805 567.294 107.434 568.877 107.434Z" fill="black"/>
<path d="M636.043 107.434C637.224 107.434 638.378 107.084 639.36 106.427C640.342 105.77 641.107 104.837 641.559 103.745C642.011 102.653 642.129 101.451 641.899 100.291C641.668 99.1321 641.1 98.0671 640.265 97.2312C639.43 96.3953 638.366 95.8261 637.208 95.5954C636.05 95.3648 634.849 95.4832 633.758 95.9356C632.667 96.3879 631.735 97.154 631.079 98.1369C630.423 99.1198 630.073 100.275 630.073 101.458C630.073 103.043 630.702 104.563 631.821 105.684C632.941 106.805 634.46 107.434 636.043 107.434Z" fill="black"/>
<path d="M703.162 107.434C704.343 107.434 705.497 107.084 706.479 106.427C707.461 105.77 708.226 104.837 708.678 103.745C709.13 102.653 709.248 101.451 709.018 100.291C708.787 99.1321 708.219 98.0671 707.384 97.2312C706.549 96.3953 705.485 95.8261 704.327 95.5954C703.169 95.3648 701.968 95.4832 700.877 95.9356C699.786 96.3879 698.854 97.154 698.198 98.1369C697.542 99.1198 697.192 100.275 697.192 101.458C697.192 103.043 697.821 104.563 698.941 105.684C700.06 106.805 701.579 107.434 703.162 107.434Z" fill="black"/>
<path d="M770.374 107.434C771.555 107.434 772.709 107.084 773.691 106.427C774.673 105.77 775.438 104.837 775.89 103.745C776.342 102.653 776.46 101.451 776.23 100.291C775.999 99.1321 775.431 98.0671 774.596 97.2312C773.761 96.3953 772.697 95.8261 771.539 95.5954C770.381 95.3648 769.18 95.4832 768.089 95.9356C766.998 96.3879 766.066 97.154 765.41 98.1369C764.754 99.1198 764.404 100.275 764.404 101.458C764.404 103.043 765.033 104.563 766.152 105.684C767.272 106.805 768.791 107.434 770.374 107.434Z" fill="black"/>
<path d="M837.54 107.434C838.72 107.434 839.875 107.084 840.857 106.427C841.838 105.77 842.604 104.837 843.055 103.745C843.507 102.653 843.626 101.451 843.395 100.291C843.165 99.1321 842.596 98.0671 841.761 97.2312C840.926 96.3953 839.863 95.8261 838.704 95.5954C837.546 95.3648 836.346 95.4832 835.255 95.9356C834.164 96.3879 833.232 97.154 832.575 98.1369C831.919 99.1198 831.569 100.275 831.569 101.458C831.569 103.043 832.198 104.563 833.318 105.684C834.438 106.805 835.956 107.434 837.54 107.434Z" fill="black"/>
<path d="M904.705 107.434C905.886 107.434 907.04 107.084 908.022 106.427C909.004 105.77 909.769 104.837 910.221 103.745C910.673 102.653 910.791 101.451 910.561 100.291C910.33 99.1321 909.762 98.0671 908.927 97.2312C908.092 96.3953 907.028 95.8261 905.87 95.5954C904.712 95.3648 903.511 95.4832 902.42 95.9356C901.33 96.3879 900.397 97.154 899.741 98.1369C899.085 99.1198 898.735 100.275 898.735 101.458C898.735 103.043 899.364 104.563 900.484 105.684C901.603 106.805 903.122 107.434 904.705 107.434Z" fill="black"/>
<path d="M971.871 107.434C973.052 107.434 974.206 107.084 975.188 106.427C976.17 105.77 976.935 104.837 977.387 103.745C977.839 102.653 977.957 101.451 977.726 100.291C977.496 99.1321 976.927 98.0671 976.092 97.2312C975.258 96.3953 974.194 95.8261 973.036 95.5954C971.877 95.3648 970.677 95.4832 969.586 95.9356C968.495 96.3879 967.563 97.154 966.907 98.1369C966.251 99.1198 965.901 100.275 965.901 101.458C965.901 103.043 966.53 104.563 967.649 105.684C968.769 106.805 970.287 107.434 971.871 107.434Z" fill="black"/>
<path d="M1038.99 107.434C1040.17 107.434 1041.32 107.084 1042.31 106.427C1043.29 105.77 1044.05 104.837 1044.51 103.745C1044.96 102.653 1045.08 101.451 1044.85 100.291C1044.61 99.1321 1044.05 98.0671 1043.21 97.2312C1042.38 96.3953 1041.31 95.8261 1040.15 95.5954C1039 95.3648 1037.8 95.4832 1036.71 95.9356C1035.61 96.3879 1034.68 97.154 1034.03 98.1369C1033.37 99.1198 1033.02 100.275 1033.02 101.458C1033.02 103.043 1033.65 104.563 1034.77 105.684C1035.89 106.805 1037.41 107.434 1038.99 107.434Z" fill="black"/>
<path d="M1106.2 107.434C1107.38 107.434 1108.54 107.084 1109.52 106.427C1110.5 105.77 1111.27 104.837 1111.72 103.745C1112.17 102.653 1112.29 101.451 1112.06 100.291C1111.83 99.1321 1111.26 98.0671 1110.42 97.2312C1109.59 96.3953 1108.52 95.8261 1107.37 95.5954C1106.21 95.3648 1105.01 95.4832 1103.92 95.9356C1102.83 96.3879 1101.89 97.154 1101.24 98.1369C1100.58 99.1198 1100.23 100.275 1100.23 101.458C1100.23 103.043 1100.86 104.563 1101.98 105.684C1103.1 106.805 1104.62 107.434 1106.2 107.434Z" fill="black"/>
<path d="M1173.37 107.434C1174.55 107.434 1175.7 107.084 1176.68 106.427C1177.67 105.77 1178.43 104.837 1178.88 103.745C1179.34 102.653 1179.45 101.451 1179.22 100.291C1178.99 99.1321 1178.42 98.0671 1177.59 97.2312C1176.75 96.3953 1175.69 95.8261 1174.53 95.5954C1173.37 95.3648 1172.17 95.4832 1171.08 95.9356C1169.99 96.3879 1169.06 97.154 1168.4 98.1369C1167.75 99.1198 1167.4 100.275 1167.4 101.458C1167.4 103.043 1168.03 104.563 1169.15 105.684C1170.27 106.805 1171.78 107.434 1173.37 107.434Z" fill="black"/>
<path d="M1240.53 107.434C1241.71 107.434 1242.87 107.084 1243.85 106.427C1244.83 105.77 1245.6 104.837 1246.05 103.745C1246.5 102.653 1246.62 101.451 1246.39 100.291C1246.16 99.1321 1245.59 98.0671 1244.75 97.2312C1243.92 96.3953 1242.86 95.8261 1241.7 95.5954C1240.54 95.3648 1239.34 95.4832 1238.25 95.9356C1237.16 96.3879 1236.22 97.154 1235.57 98.1369C1234.91 99.1198 1234.56 100.275 1234.56 101.458C1234.56 103.043 1235.19 104.563 1236.31 105.684C1237.43 106.805 1238.95 107.434 1240.53 107.434Z" fill="black"/>
<path d="M1307.7 107.434C1308.88 107.434 1310.03 107.084 1311.02 106.427C1312 105.77 1312.76 104.837 1313.21 103.745C1313.67 102.653 1313.78 101.451 1313.55 100.291C1313.32 99.1321 1312.75 98.0671 1311.92 97.2312C1311.09 96.3953 1310.02 95.8261 1308.86 95.5954C1307.7 95.3648 1306.5 95.4832 1305.41 95.9356C1304.32 96.3879 1303.39 97.154 1302.73 98.1369C1302.08 99.1198 1301.73 100.275 1301.73 101.458C1301.73 103.043 1302.36 104.563 1303.48 105.684C1304.6 106.805 1306.11 107.434 1307.7 107.434Z" fill="black"/>
<path d="M1374.82 107.434C1376 107.434 1377.15 107.084 1378.13 106.427C1379.12 105.77 1379.88 104.837 1380.33 103.745C1380.79 102.653 1380.9 101.451 1380.67 100.291C1380.44 99.1321 1379.87 98.0671 1379.04 97.2312C1378.2 96.3953 1377.14 95.8261 1375.98 95.5954C1374.82 95.3648 1373.62 95.4832 1372.53 95.9356C1371.44 96.3879 1370.51 97.154 1369.85 98.1369C1369.2 99.1198 1368.85 100.275 1368.85 101.458C1368.85 103.043 1369.48 104.563 1370.6 105.684C1371.72 106.805 1373.23 107.434 1374.82 107.434Z" fill="black"/>
<path d="M1442.03 107.434C1443.21 107.434 1444.36 107.084 1445.35 106.427C1446.33 105.77 1447.09 104.837 1447.55 103.745C1448 102.653 1448.12 101.451 1447.89 100.291C1447.66 99.1321 1447.09 98.0671 1446.25 97.2312C1445.42 96.3953 1444.35 95.8261 1443.19 95.5954C1442.04 95.3648 1440.84 95.4832 1439.75 95.9356C1438.65 96.3879 1437.72 97.154 1437.07 98.1369C1436.41 99.1198 1436.06 100.275 1436.06 101.458C1436.06 103.043 1436.69 104.563 1437.81 105.684C1438.93 106.805 1440.45 107.434 1442.03 107.434Z" fill="black"/>
<path d="M-2.02973 174.675C-0.454416 174.662 1.05219 174.027 2.16177 172.908C3.27134 171.788 3.89394 170.275 3.8939 168.698C3.90005 167.915 3.75138 167.139 3.45644 166.414C3.16151 165.689 2.72616 165.03 2.17549 164.474C1.62481 163.919 0.969711 163.478 0.247966 163.177C-0.473779 162.876 -1.24789 162.721 -2.02973 162.721C-3.61315 162.721 -5.13171 163.351 -6.25135 164.471C-7.37099 165.592 -8 167.113 -8 168.698C-8 170.283 -7.37099 171.803 -6.25135 172.924C-5.13171 174.045 -3.61315 174.675 -2.02973 174.675Z" fill="black"/>
<path d="M65.1358 174.675C66.7111 174.662 68.2177 174.027 69.3273 172.908C70.4369 171.788 71.0595 170.275 71.0594 168.698C71.0656 167.915 70.9169 167.139 70.622 166.414C70.327 165.689 69.8917 165.03 69.341 164.474C68.7903 163.919 68.1352 163.478 67.4135 163.177C66.6918 162.876 65.9176 162.721 65.1358 162.721C63.5524 162.721 62.0338 163.351 60.9142 164.471C59.7945 165.592 59.1655 167.113 59.1655 168.698C59.1655 170.283 59.7945 171.803 60.9142 172.924C62.0338 174.045 63.5524 174.675 65.1358 174.675Z" fill="black"/>
<path d="M132.301 174.675C133.482 174.675 134.636 174.324 135.618 173.667C136.6 173.011 137.365 172.077 137.817 170.985C138.269 169.893 138.387 168.691 138.157 167.532C137.927 166.372 137.358 165.307 136.523 164.471C135.688 163.636 134.624 163.066 133.466 162.836C132.308 162.605 131.108 162.723 130.017 163.176C128.926 163.628 127.993 164.394 127.337 165.377C126.681 166.36 126.331 167.516 126.331 168.698C126.331 170.283 126.96 171.803 128.08 172.924C129.199 174.045 130.718 174.675 132.301 174.675Z" fill="black"/>
<path d="M199.42 174.675C200.601 174.675 201.756 174.324 202.737 173.667C203.719 173.011 204.484 172.077 204.936 170.985C205.388 169.893 205.506 168.691 205.276 167.532C205.046 166.372 204.477 165.307 203.642 164.471C202.807 163.636 201.743 163.066 200.585 162.836C199.427 162.605 198.227 162.723 197.136 163.176C196.045 163.628 195.112 164.394 194.456 165.377C193.8 166.36 193.45 167.516 193.45 168.698C193.45 170.283 194.079 171.803 195.199 172.924C196.318 174.045 197.837 174.675 199.42 174.675Z" fill="black"/>
<path d="M266.632 174.675C267.813 174.675 268.967 174.324 269.949 173.667C270.931 173.011 271.696 172.077 272.148 170.985C272.6 169.893 272.718 168.691 272.488 167.532C272.258 166.372 271.689 165.307 270.854 164.471C270.019 163.636 268.955 163.066 267.797 162.836C266.639 162.605 265.439 162.723 264.348 163.176C263.257 163.628 262.324 164.394 261.668 165.377C261.012 166.36 260.662 167.516 260.662 168.698C260.662 170.283 261.291 171.803 262.411 172.924C263.53 174.045 265.049 174.675 266.632 174.675Z" fill="black"/>
<path d="M333.798 174.675C334.979 174.675 336.133 174.324 337.115 173.667C338.097 173.011 338.862 172.077 339.314 170.985C339.766 169.893 339.884 168.691 339.653 167.532C339.423 166.372 338.854 165.307 338.02 164.471C337.185 163.636 336.121 163.066 334.963 162.836C333.805 162.605 332.604 162.723 331.513 163.176C330.422 163.628 329.49 164.394 328.834 165.377C328.178 166.36 327.828 167.516 327.828 168.698C327.828 170.283 328.457 171.803 329.576 172.924C330.696 174.045 332.215 174.675 333.798 174.675Z" fill="black"/>
<path d="M400.963 174.675C402.144 174.675 403.299 174.324 404.28 173.667C405.262 173.011 406.027 172.077 406.479 170.985C406.931 169.893 407.049 168.691 406.819 167.532C406.589 166.372 406.02 165.307 405.185 164.471C404.35 163.636 403.286 163.066 402.128 162.836C400.97 162.605 399.77 162.723 398.679 163.176C397.588 163.628 396.655 164.394 395.999 165.377C395.343 166.36 394.993 167.516 394.993 168.698C394.993 170.283 395.622 171.803 396.742 172.924C397.861 174.045 399.38 174.675 400.963 174.675Z" fill="black"/>
<path d="M468.129 174.675C469.31 174.675 470.464 174.324 471.446 173.667C472.428 173.011 473.193 172.077 473.645 170.985C474.097 169.893 474.215 168.691 473.984 167.532C473.754 166.372 473.186 165.307 472.351 164.471C471.516 163.636 470.452 163.066 469.294 162.836C468.136 162.605 466.935 162.723 465.844 163.176C464.753 163.628 463.821 164.394 463.165 165.377C462.509 166.36 462.159 167.516 462.159 168.698C462.159 170.283 462.788 171.803 463.907 172.924C465.027 174.045 466.546 174.675 468.129 174.675Z" fill="black"/>
<path d="M535.248 174.675C536.429 174.675 537.583 174.324 538.565 173.667C539.547 173.011 540.312 172.077 540.764 170.985C541.216 169.893 541.334 168.691 541.104 167.532C540.873 166.372 540.305 165.307 539.47 164.471C538.635 163.636 537.571 163.066 536.413 162.836C535.255 162.605 534.054 162.723 532.963 163.176C531.872 163.628 530.94 164.394 530.284 165.377C529.628 166.36 529.278 167.516 529.278 168.698C529.278 170.283 529.907 171.803 531.026 172.924C532.146 174.045 533.665 174.675 535.248 174.675Z" fill="black"/>
<path d="M602.46 174.675C603.641 174.675 604.795 174.324 605.777 173.667C606.759 173.011 607.524 172.077 607.976 170.985C608.428 169.893 608.546 168.691 608.316 167.532C608.085 166.372 607.517 165.307 606.682 164.471C605.847 163.636 604.783 163.066 603.625 162.836C602.467 162.605 601.266 162.723 600.175 163.176C599.084 163.628 598.152 164.394 597.496 165.377C596.84 166.36 596.49 167.516 596.49 168.698C596.49 170.283 597.119 171.803 598.238 172.924C599.358 174.045 600.877 174.675 602.46 174.675Z" fill="black"/>
<path d="M669.626 174.675C670.806 174.675 671.961 174.324 672.942 173.667C673.924 173.011 674.69 172.077 675.141 170.985C675.593 169.893 675.711 168.691 675.481 167.532C675.251 166.372 674.682 165.307 673.847 164.471C673.012 163.636 671.948 163.066 670.79 162.836C669.632 162.605 668.432 162.723 667.341 163.176C666.25 163.628 665.317 164.394 664.661 165.377C664.005 166.36 663.655 167.516 663.655 168.698C663.655 170.283 664.284 171.803 665.404 172.924C666.524 174.045 668.042 174.675 669.626 174.675Z" fill="black"/>
<path d="M736.792 174.675C737.972 174.675 739.127 174.324 740.108 173.667C741.09 173.011 741.856 172.077 742.307 170.985C742.759 169.893 742.878 168.691 742.647 167.532C742.417 166.372 741.848 165.307 741.013 164.471C740.178 163.636 739.114 163.066 737.956 162.836C736.798 162.605 735.598 162.723 734.507 163.176C733.416 163.628 732.484 164.394 731.828 165.377C731.171 166.36 730.821 167.516 730.821 168.698C730.821 170.283 731.45 171.803 732.57 172.924C733.69 174.045 735.208 174.675 736.792 174.675Z" fill="black"/>
<path d="M803.957 174.675C805.138 174.675 806.292 174.324 807.274 173.667C808.256 173.011 809.021 172.077 809.473 170.985C809.925 169.893 810.043 168.691 809.813 167.532C809.582 166.372 809.014 165.307 808.179 164.471C807.344 163.636 806.28 163.066 805.122 162.836C803.964 162.605 802.763 162.723 801.672 163.176C800.581 163.628 799.649 164.394 798.993 165.377C798.337 166.36 797.987 167.516 797.987 168.698C797.987 170.283 798.616 171.803 799.735 172.924C800.855 174.045 802.374 174.675 803.957 174.675Z" fill="black"/>
<path d="M871.076 174.675C872.257 174.675 873.411 174.324 874.393 173.667C875.374 173.011 876.14 172.077 876.592 170.985C877.043 169.893 877.162 168.691 876.931 167.532C876.701 166.372 876.132 165.307 875.297 164.471C874.462 163.636 873.399 163.066 872.24 162.836C871.082 162.605 869.882 162.723 868.791 163.176C867.7 163.628 866.768 164.394 866.112 165.377C865.456 166.36 865.105 167.516 865.105 168.698C865.105 170.283 865.735 171.803 866.854 172.924C867.974 174.045 869.492 174.675 871.076 174.675Z" fill="black"/>
<path d="M938.288 174.675C939.469 174.675 940.623 174.324 941.605 173.667C942.587 173.011 943.352 172.077 943.804 170.985C944.256 169.893 944.374 168.691 944.144 167.532C943.913 166.372 943.345 165.307 942.51 164.471C941.675 163.636 940.611 163.066 939.453 162.836C938.295 162.605 937.094 162.723 936.003 163.176C934.912 163.628 933.98 164.394 933.324 165.377C932.668 166.36 932.318 167.516 932.318 168.698C932.318 170.283 932.947 171.803 934.066 172.924C935.186 174.045 936.705 174.675 938.288 174.675Z" fill="black"/>
<path d="M1005.45 174.675C1006.63 174.675 1007.79 174.324 1008.77 173.667C1009.75 173.011 1010.52 172.077 1010.97 170.985C1011.42 169.893 1011.54 168.691 1011.31 167.532C1011.08 166.372 1010.51 165.307 1009.68 164.471C1008.84 163.636 1007.78 163.066 1006.62 162.836C1005.46 162.605 1004.26 162.723 1003.17 163.176C1002.08 163.628 1001.15 164.394 1000.49 165.377C999.834 166.36 999.483 167.516 999.483 168.698C999.483 170.283 1000.11 171.803 1001.23 172.924C1002.35 174.045 1003.87 174.675 1005.45 174.675Z" fill="black"/>
<path d="M1072.62 174.675C1073.8 174.675 1074.95 174.324 1075.94 173.667C1076.92 173.011 1077.68 172.077 1078.14 170.985C1078.59 169.893 1078.71 168.691 1078.47 167.532C1078.24 166.372 1077.68 165.307 1076.84 164.471C1076.01 163.636 1074.94 163.066 1073.78 162.836C1072.63 162.605 1071.43 162.723 1070.33 163.176C1069.24 163.628 1068.31 164.394 1067.66 165.377C1067 166.36 1066.65 167.516 1066.65 168.698C1066.65 170.283 1067.28 171.803 1068.4 172.924C1069.52 174.045 1071.04 174.675 1072.62 174.675Z" fill="black"/>
<path d="M1139.78 174.675C1140.97 174.675 1142.12 174.324 1143.1 173.667C1144.08 173.011 1144.85 172.077 1145.3 170.985C1145.75 169.893 1145.87 168.691 1145.64 167.532C1145.41 166.372 1144.84 165.307 1144.01 164.471C1143.17 163.636 1142.11 163.066 1140.95 162.836C1139.79 162.605 1138.59 162.723 1137.5 163.176C1136.41 163.628 1135.48 164.394 1134.82 165.377C1134.16 166.36 1133.81 167.516 1133.81 168.698C1133.81 170.283 1134.44 171.803 1135.56 172.924C1136.68 174.045 1138.2 174.675 1139.78 174.675Z" fill="black"/>
<path d="M1206.9 174.675C1208.08 174.675 1209.24 174.324 1210.22 173.667C1211.2 173.011 1211.97 172.077 1212.42 170.985C1212.87 169.893 1212.99 168.691 1212.76 167.532C1212.53 166.372 1211.96 165.307 1211.13 164.471C1210.29 163.636 1209.23 163.066 1208.07 162.836C1206.91 162.605 1205.71 162.723 1204.62 163.176C1203.53 163.628 1202.6 164.394 1201.94 165.377C1201.28 166.36 1200.93 167.516 1200.93 168.698C1200.93 170.283 1201.56 171.803 1202.68 172.924C1203.8 174.045 1205.32 174.675 1206.9 174.675Z" fill="black"/>
<path d="M1274.12 174.675C1275.3 174.675 1276.45 174.324 1277.43 173.667C1278.41 173.011 1279.18 172.077 1279.63 170.985C1280.08 169.893 1280.2 168.691 1279.97 167.532C1279.74 166.372 1279.17 165.307 1278.34 164.471C1277.5 163.636 1276.44 163.066 1275.28 162.836C1274.12 162.605 1272.92 162.723 1271.83 163.176C1270.74 163.628 1269.81 164.394 1269.15 165.377C1268.5 166.36 1268.15 167.516 1268.15 168.698C1268.15 170.283 1268.77 171.803 1269.89 172.924C1271.01 174.045 1272.53 174.675 1274.12 174.675Z" fill="black"/>
<path d="M1341.28 174.675C1342.46 174.675 1343.62 174.324 1344.6 173.667C1345.58 173.011 1346.35 172.077 1346.8 170.985C1347.25 169.893 1347.37 168.691 1347.14 167.532C1346.91 166.372 1346.34 165.307 1345.5 164.471C1344.67 163.636 1343.6 163.066 1342.45 162.836C1341.29 162.605 1340.09 162.723 1339 163.176C1337.91 163.628 1336.97 164.394 1336.32 165.377C1335.66 166.36 1335.31 167.516 1335.31 168.698C1335.31 170.283 1335.94 171.803 1337.06 172.924C1338.18 174.045 1339.7 174.675 1341.28 174.675Z" fill="black"/>
<path d="M1408.45 174.675C1409.63 174.675 1410.78 174.324 1411.76 173.667C1412.75 173.011 1413.51 172.077 1413.96 170.985C1414.41 169.893 1414.53 168.691 1414.3 167.532C1414.07 166.372 1413.5 165.307 1412.67 164.471C1411.83 163.636 1410.77 163.066 1409.61 162.836C1408.45 162.605 1407.25 162.723 1406.16 163.176C1405.07 163.628 1404.14 164.394 1403.48 165.377C1402.83 166.36 1402.48 167.516 1402.48 168.698C1402.48 170.283 1403.11 171.803 1404.23 172.924C1405.34 174.045 1406.86 174.675 1408.45 174.675Z" fill="black"/>
<path d="M31.5064 241.915C33.0817 241.903 34.5883 241.268 35.6979 240.148C36.8075 239.028 37.4301 237.515 37.43 235.938C37.4362 235.155 37.2875 234.379 36.9926 233.654C36.6976 232.929 36.2623 232.27 35.7116 231.715C35.1609 231.159 34.5058 230.718 33.7841 230.417C33.0624 230.116 32.2882 229.961 31.5064 229.961C29.923 229.961 28.4044 230.591 27.2848 231.712C26.1651 232.833 25.5361 234.353 25.5361 235.938C25.5361 237.523 26.1651 239.044 27.2848 240.164C28.4044 241.285 29.923 241.915 31.5064 241.915Z" fill="black"/>
<path d="M98.7188 241.915C99.8996 241.915 101.054 241.564 102.036 240.908C103.018 240.251 103.783 239.318 104.235 238.225C104.686 237.133 104.805 235.931 104.574 234.772C104.344 233.613 103.775 232.548 102.94 231.712C102.105 230.876 101.042 230.307 99.8835 230.076C98.7254 229.845 97.525 229.964 96.4341 230.416C95.3432 230.869 94.4107 231.635 93.7547 232.618C93.0987 233.6 92.7485 234.756 92.7485 235.938C92.7485 237.523 93.3775 239.044 94.4972 240.164C95.6168 241.285 97.1354 241.915 98.7188 241.915Z" fill="black"/>
<path d="M165.884 241.915C167.065 241.915 168.219 241.564 169.201 240.908C170.183 240.251 170.948 239.318 171.4 238.225C171.852 237.133 171.97 235.931 171.74 234.772C171.51 233.613 170.941 232.548 170.106 231.712C169.271 230.876 168.207 230.307 167.049 230.076C165.891 229.845 164.691 229.964 163.6 230.416C162.509 230.869 161.576 231.635 160.92 232.618C160.264 233.6 159.914 234.756 159.914 235.938C159.914 237.523 160.543 239.044 161.663 240.164C162.782 241.285 164.301 241.915 165.884 241.915Z" fill="black"/>
<path d="M233.05 241.915C234.231 241.915 235.385 241.564 236.367 240.908C237.349 240.251 238.114 239.318 238.566 238.225C239.018 237.133 239.136 235.931 238.905 234.772C238.675 233.613 238.106 232.548 237.271 231.712C236.437 230.876 235.373 230.307 234.215 230.076C233.056 229.845 231.856 229.964 230.765 230.416C229.674 230.869 228.742 231.635 228.086 232.618C227.43 233.6 227.08 234.756 227.08 235.938C227.08 237.523 227.709 239.044 228.828 240.164C229.948 241.285 231.466 241.915 233.05 241.915Z" fill="black"/>
<path d="M300.215 241.915C301.396 241.915 302.55 241.564 303.532 240.908C304.514 240.251 305.279 239.318 305.731 238.225C306.183 237.133 306.301 235.931 306.071 234.772C305.841 233.613 305.272 232.548 304.437 231.712C303.602 230.876 302.538 230.307 301.38 230.076C300.222 229.845 299.022 229.964 297.931 230.416C296.84 230.869 295.907 231.635 295.251 232.618C294.595 233.6 294.245 234.756 294.245 235.938C294.245 237.523 294.874 239.044 295.994 240.164C297.113 241.285 298.632 241.915 300.215 241.915Z" fill="black"/>
<path d="M367.334 241.915C368.515 241.915 369.669 241.564 370.651 240.908C371.633 240.251 372.398 239.318 372.85 238.225C373.302 237.133 373.42 235.931 373.19 234.772C372.959 233.613 372.391 232.548 371.556 231.712C370.721 230.876 369.657 230.307 368.499 230.076C367.341 229.845 366.14 229.964 365.049 230.416C363.958 230.869 363.026 231.635 362.37 232.618C361.714 233.6 361.364 234.756 361.364 235.938C361.364 237.523 361.993 239.044 363.112 240.164C364.232 241.285 365.751 241.915 367.334 241.915Z" fill="black"/>
<path d="M434.546 241.915C435.727 241.915 436.882 241.564 437.863 240.908C438.845 240.251 439.61 239.318 440.062 238.225C440.514 237.133 440.632 235.931 440.402 234.772C440.172 233.613 439.603 232.548 438.768 231.712C437.933 230.876 436.869 230.307 435.711 230.076C434.553 229.845 433.353 229.964 432.262 230.416C431.171 230.869 430.238 231.635 429.582 232.618C428.926 233.6 428.576 234.756 428.576 235.938C428.576 237.523 429.205 239.044 430.325 240.164C431.444 241.285 432.963 241.915 434.546 241.915Z" fill="black"/>
<path d="M501.712 241.915C502.893 241.915 504.047 241.564 505.029 240.908C506.011 240.251 506.776 239.318 507.228 238.225C507.68 237.133 507.798 235.931 507.568 234.772C507.337 233.613 506.769 232.548 505.934 231.712C505.099 230.876 504.035 230.307 502.877 230.076C501.719 229.845 500.518 229.964 499.427 230.416C498.336 230.869 497.404 231.635 496.748 232.618C496.092 233.6 495.742 234.756 495.742 235.938C495.742 237.523 496.371 239.044 497.49 240.164C498.61 241.285 500.129 241.915 501.712 241.915Z" fill="black"/>
<path d="M568.877 241.915C570.058 241.915 571.213 241.564 572.194 240.908C573.176 240.251 573.941 239.318 574.393 238.225C574.845 237.133 574.963 235.931 574.733 234.772C574.503 233.613 573.934 232.548 573.099 231.712C572.264 230.876 571.2 230.307 570.042 230.076C568.884 229.845 567.684 229.964 566.593 230.416C565.502 230.869 564.569 231.635 563.913 232.618C563.257 233.6 562.907 234.756 562.907 235.938C562.907 237.523 563.536 239.044 564.656 240.164C565.776 241.285 567.294 241.915 568.877 241.915Z" fill="black"/>
<path d="M636.043 241.915C637.224 241.915 638.378 241.564 639.36 240.908C640.342 240.251 641.107 239.318 641.559 238.225C642.011 237.133 642.129 235.931 641.899 234.772C641.668 233.613 641.1 232.548 640.265 231.712C639.43 230.876 638.366 230.307 637.208 230.076C636.05 229.845 634.849 229.964 633.758 230.416C632.667 230.869 631.735 231.635 631.079 232.618C630.423 233.6 630.073 234.756 630.073 235.938C630.073 237.523 630.702 239.044 631.821 240.164C632.941 241.285 634.46 241.915 636.043 241.915Z" fill="black"/>
<path d="M703.162 241.915C704.343 241.915 705.497 241.564 706.479 240.908C707.461 240.251 708.226 239.318 708.678 238.225C709.13 237.133 709.248 235.931 709.018 234.772C708.787 233.613 708.219 232.548 707.384 231.712C706.549 230.876 705.485 230.307 704.327 230.076C703.169 229.845 701.968 229.964 700.877 230.416C699.786 230.869 698.854 231.635 698.198 232.618C697.542 233.6 697.192 234.756 697.192 235.938C697.192 237.523 697.821 239.044 698.941 240.164C700.06 241.285 701.579 241.915 703.162 241.915Z" fill="black"/>
<path d="M770.374 241.915C771.555 241.915 772.709 241.564 773.691 240.908C774.673 240.251 775.438 239.318 775.89 238.225C776.342 237.133 776.46 235.931 776.23 234.772C775.999 233.613 775.431 232.548 774.596 231.712C773.761 230.876 772.697 230.307 771.539 230.076C770.381 229.845 769.18 229.964 768.089 230.416C766.998 230.869 766.066 231.635 765.41 232.618C764.754 233.6 764.404 234.756 764.404 235.938C764.404 237.523 765.033 239.044 766.152 240.164C767.272 241.285 768.791 241.915 770.374 241.915Z" fill="black"/>
<path d="M837.54 241.915C838.72 241.915 839.875 241.564 840.857 240.908C841.838 240.251 842.604 239.318 843.055 238.225C843.507 237.133 843.626 235.931 843.395 234.772C843.165 233.613 842.596 232.548 841.761 231.712C840.926 230.876 839.863 230.307 838.704 230.076C837.546 229.845 836.346 229.964 835.255 230.416C834.164 230.869 833.232 231.635 832.575 232.618C831.919 233.6 831.569 234.756 831.569 235.938C831.569 237.523 832.198 239.044 833.318 240.164C834.438 241.285 835.956 241.915 837.54 241.915Z" fill="black"/>
<path d="M904.705 241.915C905.886 241.915 907.04 241.564 908.022 240.908C909.004 240.251 909.769 239.318 910.221 238.225C910.673 237.133 910.791 235.931 910.561 234.772C910.33 233.613 909.762 232.548 908.927 231.712C908.092 230.876 907.028 230.307 905.87 230.076C904.712 229.845 903.511 229.964 902.42 230.416C901.33 230.869 900.397 231.635 899.741 232.618C899.085 233.6 898.735 234.756 898.735 235.938C898.735 237.523 899.364 239.044 900.484 240.164C901.603 241.285 903.122 241.915 904.705 241.915Z" fill="black"/>
<path d="M971.871 241.915C973.052 241.915 974.206 241.564 975.188 240.908C976.17 240.251 976.935 239.318 977.387 238.225C977.839 237.133 977.957 235.931 977.726 234.772C977.496 233.613 976.927 232.548 976.092 231.712C975.258 230.876 974.194 230.307 973.036 230.076C971.877 229.845 970.677 229.964 969.586 230.416C968.495 230.869 967.563 231.635 966.907 232.618C966.251 233.6 965.901 234.756 965.901 235.938C965.901 237.523 966.53 239.044 967.649 240.164C968.769 241.285 970.287 241.915 971.871 241.915Z" fill="black"/>
<path d="M1038.99 241.915C1040.17 241.915 1041.32 241.564 1042.31 240.908C1043.29 240.251 1044.05 239.318 1044.51 238.225C1044.96 237.133 1045.08 235.931 1044.85 234.772C1044.61 233.613 1044.05 232.548 1043.21 231.712C1042.38 230.876 1041.31 230.307 1040.15 230.076C1039 229.845 1037.8 229.964 1036.71 230.416C1035.61 230.869 1034.68 231.635 1034.03 232.618C1033.37 233.6 1033.02 234.756 1033.02 235.938C1033.02 237.523 1033.65 239.044 1034.77 240.164C1035.89 241.285 1037.41 241.915 1038.99 241.915Z" fill="black"/>
<path d="M1106.2 241.915C1107.38 241.915 1108.54 241.564 1109.52 240.908C1110.5 240.251 1111.27 239.318 1111.72 238.225C1112.17 237.133 1112.29 235.931 1112.06 234.772C1111.83 233.613 1111.26 232.548 1110.42 231.712C1109.59 230.876 1108.52 230.307 1107.37 230.076C1106.21 229.845 1105.01 229.964 1103.92 230.416C1102.83 230.869 1101.89 231.635 1101.24 232.618C1100.58 233.6 1100.23 234.756 1100.23 235.938C1100.23 237.523 1100.86 239.044 1101.98 240.164C1103.1 241.285 1104.62 241.915 1106.2 241.915Z" fill="black"/>
<path d="M1173.37 241.915C1174.55 241.915 1175.7 241.564 1176.68 240.908C1177.67 240.251 1178.43 239.318 1178.88 238.225C1179.34 237.133 1179.45 235.931 1179.22 234.772C1178.99 233.613 1178.42 232.548 1177.59 231.712C1176.75 230.876 1175.69 230.307 1174.53 230.076C1173.37 229.845 1172.17 229.964 1171.08 230.416C1169.99 230.869 1169.06 231.635 1168.4 232.618C1167.75 233.6 1167.4 234.756 1167.4 235.938C1167.4 237.523 1168.03 239.044 1169.15 240.164C1170.27 241.285 1171.78 241.915 1173.37 241.915Z" fill="black"/>
<path d="M1240.53 241.915C1241.71 241.915 1242.87 241.564 1243.85 240.908C1244.83 240.251 1245.6 239.318 1246.05 238.225C1246.5 237.133 1246.62 235.931 1246.39 234.772C1246.16 233.613 1245.59 232.548 1244.75 231.712C1243.92 230.876 1242.86 230.307 1241.7 230.076C1240.54 229.845 1239.34 229.964 1238.25 230.416C1237.16 230.869 1236.22 231.635 1235.57 232.618C1234.91 233.6 1234.56 234.756 1234.56 235.938C1234.56 237.523 1235.19 239.044 1236.31 240.164C1237.43 241.285 1238.95 241.915 1240.53 241.915Z" fill="black"/>
<path d="M1307.7 241.915C1308.88 241.915 1310.03 241.564 1311.02 240.908C1312 240.251 1312.76 239.318 1313.21 238.225C1313.67 237.133 1313.78 235.931 1313.55 234.772C1313.32 233.613 1312.75 232.548 1311.92 231.712C1311.09 230.876 1310.02 230.307 1308.86 230.076C1307.7 229.845 1306.5 229.964 1305.41 230.416C1304.32 230.869 1303.39 231.635 1302.73 232.618C1302.08 233.6 1301.73 234.756 1301.73 235.938C1301.73 237.523 1302.36 239.044 1303.48 240.164C1304.6 241.285 1306.11 241.915 1307.7 241.915Z" fill="black"/>
<path d="M1374.82 241.915C1376 241.915 1377.15 241.564 1378.13 240.908C1379.12 240.251 1379.88 239.318 1380.33 238.225C1380.79 237.133 1380.9 235.931 1380.67 234.772C1380.44 233.613 1379.87 232.548 1379.04 231.712C1378.2 230.876 1377.14 230.307 1375.98 230.076C1374.82 229.845 1373.62 229.964 1372.53 230.416C1371.44 230.869 1370.51 231.635 1369.85 232.618C1369.2 233.6 1368.85 234.756 1368.85 235.938C1368.85 237.523 1369.48 239.044 1370.6 240.164C1371.72 241.285 1373.23 241.915 1374.82 241.915Z" fill="black"/>
<path d="M1442.03 241.915C1443.21 241.915 1444.36 241.564 1445.35 240.908C1446.33 240.251 1447.09 239.318 1447.55 238.225C1448 237.133 1448.12 235.931 1447.89 234.772C1447.66 233.613 1447.09 232.548 1446.25 231.712C1445.42 230.876 1444.35 230.307 1443.19 230.076C1442.04 229.845 1440.84 229.964 1439.75 230.416C1438.65 230.869 1437.72 231.635 1437.07 232.618C1436.41 233.6 1436.06 234.756 1436.06 235.938C1436.06 237.523 1436.69 239.044 1437.81 240.164C1438.93 241.285 1440.45 241.915 1442.03 241.915Z" fill="black"/>
<path d="M-2.02973 309.155C-0.454416 309.143 1.05219 308.508 2.16177 307.388C3.27134 306.269 3.89394 304.756 3.8939 303.178C3.90005 302.396 3.75138 301.62 3.45644 300.895C3.16151 300.17 2.72616 299.51 2.17549 298.955C1.62481 298.399 0.969711 297.958 0.247966 297.657C-0.473779 297.356 -1.24789 297.201 -2.02973 297.201C-3.61315 297.201 -5.13171 297.831 -6.25135 298.952C-7.37099 300.073 -8 301.593 -8 303.178C-8 304.764 -7.37099 306.284 -6.25135 307.405C-5.13171 308.526 -3.61315 309.155 -2.02973 309.155Z" fill="black"/>
<path d="M65.1358 309.155C68.4331 309.155 71.1061 306.479 71.1061 303.178C71.1061 299.877 68.4331 297.201 65.1358 297.201C61.8385 297.201 59.1655 299.877 59.1655 303.178C59.1655 306.479 61.8385 309.155 65.1358 309.155Z" fill="black"/>
<path d="M132.301 309.155C133.482 309.155 134.636 308.805 135.618 308.148C136.6 307.491 137.365 306.558 137.817 305.466C138.269 304.374 138.387 303.172 138.157 302.012C137.927 300.853 137.358 299.788 136.523 298.952C135.688 298.116 134.624 297.547 133.466 297.316C132.308 297.086 131.108 297.204 130.017 297.656C128.926 298.109 127.993 298.875 127.337 299.858C126.681 300.841 126.331 301.996 126.331 303.178C126.331 304.764 126.96 306.284 128.08 307.405C129.199 308.526 130.718 309.155 132.301 309.155Z" fill="black"/>
<path d="M199.42 309.155C200.601 309.155 201.756 308.805 202.737 308.148C203.719 307.491 204.484 306.558 204.936 305.466C205.388 304.374 205.506 303.172 205.276 302.012C205.046 300.853 204.477 299.788 203.642 298.952C202.807 298.116 201.743 297.547 200.585 297.316C199.427 297.086 198.227 297.204 197.136 297.656C196.045 298.109 195.112 298.875 194.456 299.858C193.8 300.841 193.45 301.996 193.45 303.178C193.45 304.764 194.079 306.284 195.199 307.405C196.318 308.526 197.837 309.155 199.42 309.155Z" fill="black"/>
<path d="M266.632 309.155C267.813 309.155 268.967 308.805 269.949 308.148C270.931 307.491 271.696 306.558 272.148 305.466C272.6 304.374 272.718 303.172 272.488 302.012C272.258 300.853 271.689 299.788 270.854 298.952C270.019 298.116 268.955 297.547 267.797 297.316C266.639 297.086 265.439 297.204 264.348 297.656C263.257 298.109 262.324 298.875 261.668 299.858C261.012 300.841 260.662 301.996 260.662 303.178C260.662 304.764 261.291 306.284 262.411 307.405C263.53 308.526 265.049 309.155 266.632 309.155Z" fill="black"/>
<path d="M333.798 309.155C334.979 309.155 336.133 308.805 337.115 308.148C338.097 307.491 338.862 306.558 339.314 305.466C339.766 304.374 339.884 303.172 339.653 302.012C339.423 300.853 338.854 299.788 338.02 298.952C337.185 298.116 336.121 297.547 334.963 297.316C333.805 297.086 332.604 297.204 331.513 297.656C330.422 298.109 329.49 298.875 328.834 299.858C328.178 300.841 327.828 301.996 327.828 303.178C327.828 304.764 328.457 306.284 329.576 307.405C330.696 308.526 332.215 309.155 333.798 309.155Z" fill="black"/>
<path d="M400.963 309.155C404.261 309.155 406.934 306.479 406.934 303.178C406.934 299.877 404.261 297.201 400.963 297.201C397.666 297.201 394.993 299.877 394.993 303.178C394.993 306.479 397.666 309.155 400.963 309.155Z" fill="black"/>
<path d="M468.129 309.155C469.31 309.155 470.464 308.805 471.446 308.148C472.428 307.491 473.193 306.558 473.645 305.466C474.097 304.374 474.215 303.172 473.984 302.012C473.754 300.853 473.186 299.788 472.351 298.952C471.516 298.116 470.452 297.547 469.294 297.316C468.136 297.086 466.935 297.204 465.844 297.656C464.753 298.109 463.821 298.875 463.165 299.858C462.509 300.841 462.159 301.996 462.159 303.178C462.159 304.764 462.788 306.284 463.907 307.405C465.027 308.526 466.546 309.155 468.129 309.155Z" fill="black"/>
<path d="M535.248 309.155C536.429 309.155 537.583 308.805 538.565 308.148C539.547 307.491 540.312 306.558 540.764 305.466C541.216 304.374 541.334 303.172 541.104 302.012C540.873 300.853 540.305 299.788 539.47 298.952C538.635 298.116 537.571 297.547 536.413 297.316C535.255 297.086 534.054 297.204 532.963 297.656C531.872 298.109 530.94 298.875 530.284 299.858C529.628 300.841 529.278 301.996 529.278 303.178C529.278 304.764 529.907 306.284 531.026 307.405C532.146 308.526 533.665 309.155 535.248 309.155Z" fill="black"/>
<path d="M602.46 309.155C603.641 309.155 604.795 308.805 605.777 308.148C606.759 307.491 607.524 306.558 607.976 305.466C608.428 304.374 608.546 303.172 608.316 302.012C608.085 300.853 607.517 299.788 606.682 298.952C605.847 298.116 604.783 297.547 603.625 297.316C602.467 297.086 601.266 297.204 600.175 297.656C599.084 298.109 598.152 298.875 597.496 299.858C596.84 300.841 596.49 301.996 596.49 303.178C596.49 304.764 597.119 306.284 598.238 307.405C599.358 308.526 600.877 309.155 602.46 309.155Z" fill="black"/>
<path d="M669.626 309.155C670.806 309.155 671.961 308.805 672.942 308.148C673.924 307.491 674.69 306.558 675.141 305.466C675.593 304.374 675.711 303.172 675.481 302.012C675.251 300.853 674.682 299.788 673.847 298.952C673.012 298.116 671.948 297.547 670.79 297.316C669.632 297.086 668.432 297.204 667.341 297.656C666.25 298.109 665.317 298.875 664.661 299.858C664.005 300.841 663.655 301.996 663.655 303.178C663.655 304.764 664.284 306.284 665.404 307.405C666.524 308.526 668.042 309.155 669.626 309.155Z" fill="black"/>
<path d="M736.792 309.155C740.089 309.155 742.762 306.479 742.762 303.178C742.762 299.877 740.089 297.201 736.792 297.201C733.494 297.201 730.821 299.877 730.821 303.178C730.821 306.479 733.494 309.155 736.792 309.155Z" fill="black"/>
<path d="M803.957 309.155C805.138 309.155 806.292 308.805 807.274 308.148C808.256 307.491 809.021 306.558 809.473 305.466C809.925 304.374 810.043 303.172 809.813 302.012C809.582 300.853 809.014 299.788 808.179 298.952C807.344 298.116 806.28 297.547 805.122 297.316C803.964 297.086 802.763 297.204 801.672 297.656C800.581 298.109 799.649 298.875 798.993 299.858C798.337 300.841 797.987 301.996 797.987 303.178C797.987 304.764 798.616 306.284 799.735 307.405C800.855 308.526 802.374 309.155 803.957 309.155Z" fill="black"/>
<path d="M871.076 309.155C872.257 309.155 873.411 308.805 874.393 308.148C875.374 307.491 876.14 306.558 876.592 305.466C877.043 304.374 877.162 303.172 876.931 302.012C876.701 300.853 876.132 299.788 875.297 298.952C874.462 298.116 873.399 297.547 872.24 297.316C871.082 297.086 869.882 297.204 868.791 297.656C867.7 298.109 866.768 298.875 866.112 299.858C865.456 300.841 865.105 301.996 865.105 303.178C865.105 304.764 865.735 306.284 866.854 307.405C867.974 308.526 869.492 309.155 871.076 309.155Z" fill="black"/>
<path d="M938.288 309.155C939.469 309.155 940.623 308.805 941.605 308.148C942.587 307.491 943.352 306.558 943.804 305.466C944.256 304.374 944.374 303.172 944.144 302.012C943.913 300.853 943.345 299.788 942.51 298.952C941.675 298.116 940.611 297.547 939.453 297.316C938.295 297.086 937.094 297.204 936.003 297.656C934.912 298.109 933.98 298.875 933.324 299.858C932.668 300.841 932.318 301.996 932.318 303.178C932.318 304.764 932.947 306.284 934.066 307.405C935.186 308.526 936.705 309.155 938.288 309.155Z" fill="black"/>
<path d="M1005.45 309.155C1006.63 309.155 1007.79 308.805 1008.77 308.148C1009.75 307.491 1010.52 306.558 1010.97 305.466C1011.42 304.374 1011.54 303.172 1011.31 302.012C1011.08 300.853 1010.51 299.788 1009.68 298.952C1008.84 298.116 1007.78 297.547 1006.62 297.316C1005.46 297.086 1004.26 297.204 1003.17 297.656C1002.08 298.109 1001.15 298.875 1000.49 299.858C999.834 300.841 999.483 301.996 999.483 303.178C999.483 304.764 1000.11 306.284 1001.23 307.405C1002.35 308.526 1003.87 309.155 1005.45 309.155Z" fill="black"/>
<path d="M1072.62 309.155C1075.92 309.155 1078.59 306.479 1078.59 303.178C1078.59 299.877 1075.92 297.201 1072.62 297.201C1069.32 297.201 1066.65 299.877 1066.65 303.178C1066.65 306.479 1069.32 309.155 1072.62 309.155Z" fill="black"/>
<path d="M1139.78 309.155C1140.97 309.155 1142.12 308.805 1143.1 308.148C1144.08 307.491 1144.85 306.558 1145.3 305.466C1145.75 304.374 1145.87 303.172 1145.64 302.012C1145.41 300.853 1144.84 299.788 1144.01 298.952C1143.17 298.116 1142.11 297.547 1140.95 297.316C1139.79 297.086 1138.59 297.204 1137.5 297.656C1136.41 298.109 1135.48 298.875 1134.82 299.858C1134.16 300.841 1133.81 301.996 1133.81 303.178C1133.81 304.764 1134.44 306.284 1135.56 307.405C1136.68 308.526 1138.2 309.155 1139.78 309.155Z" fill="black"/>
<path d="M1206.9 309.155C1208.08 309.155 1209.24 308.805 1210.22 308.148C1211.2 307.491 1211.97 306.558 1212.42 305.466C1212.87 304.374 1212.99 303.172 1212.76 302.012C1212.53 300.853 1211.96 299.788 1211.13 298.952C1210.29 298.116 1209.23 297.547 1208.07 297.316C1206.91 297.086 1205.71 297.204 1204.62 297.656C1203.53 298.109 1202.6 298.875 1201.94 299.858C1201.28 300.841 1200.93 301.996 1200.93 303.178C1200.93 304.764 1201.56 306.284 1202.68 307.405C1203.8 308.526 1205.32 309.155 1206.9 309.155Z" fill="black"/>
<path d="M1274.12 309.155C1275.3 309.155 1276.45 308.805 1277.43 308.148C1278.41 307.491 1279.18 306.558 1279.63 305.466C1280.08 304.374 1280.2 303.172 1279.97 302.012C1279.74 300.853 1279.17 299.788 1278.34 298.952C1277.5 298.116 1276.44 297.547 1275.28 297.316C1274.12 297.086 1272.92 297.204 1271.83 297.656C1270.74 298.109 1269.81 298.875 1269.15 299.858C1268.5 300.841 1268.15 301.996 1268.15 303.178C1268.15 304.764 1268.77 306.284 1269.89 307.405C1271.01 308.526 1272.53 309.155 1274.12 309.155Z" fill="black"/>
<path d="M1341.28 309.155C1342.46 309.155 1343.62 308.805 1344.6 308.148C1345.58 307.491 1346.35 306.558 1346.8 305.466C1347.25 304.374 1347.37 303.172 1347.14 302.012C1346.91 300.853 1346.34 299.788 1345.5 298.952C1344.67 298.116 1343.6 297.547 1342.45 297.316C1341.29 297.086 1340.09 297.204 1339 297.656C1337.91 298.109 1336.97 298.875 1336.32 299.858C1335.66 300.841 1335.31 301.996 1335.31 303.178C1335.31 304.764 1335.94 306.284 1337.06 307.405C1338.18 308.526 1339.7 309.155 1341.28 309.155Z" fill="black"/>
<path d="M1408.45 309.155C1411.74 309.155 1414.42 306.479 1414.42 303.178C1414.42 299.877 1411.74 297.201 1408.45 297.201C1405.15 297.201 1402.48 299.877 1402.48 303.178C1402.48 306.479 1405.15 309.155 1408.45 309.155Z" fill="black"/>
<path d="M31.5063 376.396C33.0817 376.396 34.5932 375.772 35.7115 374.662C36.8299 373.551 37.4643 372.042 37.4766 370.465C37.4891 369.675 37.3435 368.89 37.0485 368.156C36.7534 367.423 36.3149 366.756 35.7586 366.195C35.2024 365.634 34.5396 365.189 33.8093 364.888C33.0791 364.587 32.2961 364.435 31.5063 364.442C30.7223 364.448 29.9471 364.609 29.2251 364.915C28.5031 365.221 27.8484 365.666 27.2983 366.225C26.7483 366.785 26.3136 367.447 26.0193 368.175C25.7249 368.902 25.5766 369.68 25.5827 370.465C25.5949 372.034 26.2229 373.536 27.3312 374.645C28.4394 375.755 29.9391 376.383 31.5063 376.396Z" fill="black"/>
<path d="M98.7185 376.396C99.9013 376.396 101.057 376.044 102.04 375.385C103.023 374.726 103.788 373.79 104.239 372.695C104.689 371.6 104.805 370.396 104.57 369.235C104.336 368.075 103.763 367.01 102.923 366.176C102.084 365.342 101.016 364.776 99.8544 364.551C98.6932 364.326 97.4913 364.451 96.4013 364.91C95.3112 365.37 94.382 366.143 93.7316 367.132C93.0813 368.121 92.739 369.281 92.7482 370.465C92.7605 372.042 93.395 373.551 94.5133 374.662C95.6316 375.772 97.1431 376.396 98.7185 376.396Z" fill="black"/>
<path d="M165.884 376.396C167.067 376.396 168.223 376.044 169.206 375.385C170.189 374.726 170.954 373.79 171.404 372.695C171.855 371.6 171.97 370.396 171.736 369.235C171.502 368.075 170.929 367.01 170.089 366.176C169.249 365.342 168.181 364.776 167.02 364.551C165.859 364.326 164.657 364.451 163.567 364.91C162.477 365.37 161.548 366.143 160.897 367.132C160.247 368.121 159.905 369.281 159.914 370.465C159.926 372.042 160.56 373.551 161.679 374.662C162.797 375.772 164.309 376.396 165.884 376.396Z" fill="black"/>
<path d="M233.05 376.396C236.347 376.396 239.02 373.72 239.02 370.419C239.02 367.118 236.347 364.442 233.05 364.442C229.753 364.442 227.08 367.118 227.08 370.419C227.08 373.72 229.753 376.396 233.05 376.396Z" fill="black"/>
<path d="M300.215 376.396C301.398 376.396 302.554 376.044 303.537 375.385C304.52 374.726 305.285 373.79 305.735 372.695C306.186 371.6 306.301 370.396 306.067 369.235C305.833 368.075 305.26 367.01 304.42 366.176C303.58 365.342 302.512 364.776 301.351 364.551C300.19 364.326 298.988 364.451 297.898 364.91C296.808 365.37 295.879 366.143 295.228 367.132C294.578 368.121 294.236 369.281 294.245 370.465C294.257 372.042 294.892 373.551 296.01 374.662C297.128 375.772 298.64 376.396 300.215 376.396Z" fill="black"/>
<path d="M367.334 376.396C368.519 376.405 369.679 376.061 370.668 375.408C371.657 374.755 372.43 373.822 372.887 372.728C373.345 371.634 373.467 370.428 373.238 369.264C373.009 368.1 372.44 367.031 371.602 366.193C370.764 365.354 369.696 364.784 368.534 364.555C367.371 364.325 366.167 364.448 365.074 364.906C363.981 365.364 363.05 366.137 362.397 367.127C361.745 368.117 361.401 369.279 361.41 370.465C361.423 372.034 362.051 373.536 363.159 374.645C364.267 375.755 365.767 376.383 367.334 376.396Z" fill="black"/>
<path d="M434.547 376.396C435.729 376.396 436.886 376.044 437.868 375.385C438.851 374.726 439.616 373.79 440.067 372.695C440.517 371.6 440.633 370.396 440.399 369.235C440.164 368.075 439.591 367.01 438.751 366.176C437.912 365.342 436.844 364.776 435.683 364.551C434.521 364.326 433.319 364.451 432.229 364.91C431.139 365.37 430.21 366.143 429.56 367.132C428.909 368.121 428.567 369.281 428.576 370.465C428.589 372.042 429.223 373.551 430.341 374.662C431.46 375.772 432.971 376.396 434.547 376.396Z" fill="black"/>
<path d="M501.712 376.396C502.895 376.396 504.051 376.044 505.034 375.385C506.017 374.726 506.782 373.79 507.232 372.695C507.683 371.6 507.798 370.396 507.564 369.235C507.33 368.075 506.757 367.01 505.917 366.176C505.077 365.342 504.009 364.776 502.848 364.551C501.687 364.326 500.485 364.451 499.395 364.91C498.305 365.37 497.376 366.143 496.725 367.132C496.075 368.121 495.733 369.281 495.742 370.465C495.754 372.042 496.389 373.551 497.507 374.662C498.625 375.772 500.137 376.396 501.712 376.396Z" fill="black"/>
<path d="M568.877 376.396C572.175 376.396 574.848 373.72 574.848 370.419C574.848 367.118 572.175 364.442 568.877 364.442C565.58 364.442 562.907 367.118 562.907 370.419C562.907 373.72 565.58 376.396 568.877 376.396Z" fill="black"/>
<path d="M636.043 376.396C637.226 376.396 638.382 376.044 639.365 375.385C640.348 374.726 641.113 373.79 641.563 372.695C642.014 371.6 642.129 370.396 641.895 369.235C641.661 368.075 641.088 367.01 640.248 366.176C639.408 365.342 638.34 364.776 637.179 364.551C636.018 364.326 634.816 364.451 633.726 364.91C632.636 365.37 631.707 366.143 631.056 367.132C630.406 368.121 630.064 369.281 630.073 370.465C630.085 372.042 630.72 373.551 631.838 374.662C632.956 375.772 634.468 376.396 636.043 376.396Z" fill="black"/>
<path d="M703.162 376.396C704.347 376.405 705.508 376.061 706.496 375.408C707.485 374.755 708.258 373.822 708.715 372.728C709.173 371.634 709.295 370.428 709.066 369.264C708.838 368.1 708.268 367.031 707.43 366.193C706.592 365.354 705.524 364.784 704.362 364.555C703.199 364.325 701.995 364.448 700.902 364.906C699.81 365.364 698.878 366.137 698.225 367.127C697.573 368.117 697.229 369.279 697.238 370.465C697.251 372.034 697.879 373.536 698.987 374.645C700.095 375.755 701.595 376.383 703.162 376.396Z" fill="black"/>
<path d="M770.374 376.396C771.557 376.396 772.713 376.044 773.696 375.385C774.679 374.726 775.444 373.79 775.894 372.695C776.345 371.6 776.46 370.396 776.226 369.235C775.992 368.075 775.419 367.01 774.579 366.176C773.739 365.342 772.671 364.776 771.51 364.551C770.349 364.326 769.147 364.451 768.057 364.91C766.967 365.37 766.038 366.143 765.387 367.132C764.737 368.121 764.395 369.281 764.404 370.465C764.416 372.042 765.051 373.551 766.169 374.662C767.287 375.772 768.799 376.396 770.374 376.396Z" fill="black"/>
<path d="M837.54 376.396C838.723 376.396 839.879 376.044 840.861 375.385C841.844 374.726 842.609 373.79 843.06 372.695C843.51 371.6 843.626 370.396 843.392 369.235C843.158 368.075 842.584 367.01 841.745 366.176C840.905 365.342 839.837 364.776 838.676 364.551C837.515 364.326 836.313 364.451 835.223 364.91C834.133 365.37 833.203 366.143 832.553 367.132C831.903 368.121 831.56 369.281 831.57 370.465C831.582 372.042 832.216 373.551 833.335 374.662C834.453 375.772 835.964 376.396 837.54 376.396Z" fill="black"/>
<path d="M904.705 376.396C908.002 376.396 910.675 373.72 910.675 370.419C910.675 367.118 908.002 364.442 904.705 364.442C901.408 364.442 898.735 367.118 898.735 370.419C898.735 373.72 901.408 376.396 904.705 376.396Z" fill="black"/>
<path d="M971.871 376.396C973.054 376.396 974.21 376.044 975.193 375.385C976.175 374.726 976.94 373.79 977.391 372.695C977.841 371.6 977.957 370.396 977.723 369.235C977.489 368.075 976.915 367.01 976.076 366.176C975.236 365.342 974.168 364.776 973.007 364.551C971.846 364.326 970.644 364.451 969.554 364.91C968.463 365.37 967.534 366.143 966.884 367.132C966.234 368.121 965.891 369.281 965.901 370.465C965.913 372.042 966.547 373.551 967.666 374.662C968.784 375.772 970.295 376.396 971.871 376.396Z" fill="black"/>
<path d="M1038.99 376.396C1040.17 376.405 1041.34 376.061 1042.32 375.408C1043.31 374.755 1044.09 373.822 1044.54 372.728C1045 371.634 1045.12 370.428 1044.89 369.264C1044.67 368.1 1044.1 367.031 1043.26 366.193C1042.42 365.354 1041.35 364.784 1040.19 364.555C1039.03 364.325 1037.82 364.448 1036.73 364.906C1035.64 365.364 1034.71 366.137 1034.05 367.127C1033.4 368.117 1033.06 369.279 1033.07 370.465C1033.08 372.034 1033.71 373.536 1034.81 374.645C1035.92 375.755 1037.42 376.383 1038.99 376.396Z" fill="black"/>
<path d="M1106.2 376.396C1107.38 376.396 1108.54 376.044 1109.52 375.385C1110.51 374.726 1111.27 373.79 1111.72 372.695C1112.17 371.6 1112.29 370.396 1112.05 369.235C1111.82 368.075 1111.25 367.01 1110.41 366.176C1109.57 365.342 1108.5 364.776 1107.34 364.551C1106.18 364.326 1104.97 364.451 1103.88 364.91C1102.79 365.37 1101.87 366.143 1101.21 367.132C1100.56 368.121 1100.22 369.281 1100.23 370.465C1100.24 372.042 1100.88 373.551 1102 374.662C1103.11 375.772 1104.63 376.396 1106.2 376.396Z" fill="black"/>
<path d="M1173.37 376.396C1174.55 376.396 1175.71 376.044 1176.69 375.385C1177.67 374.726 1178.44 373.79 1178.89 372.695C1179.34 371.6 1179.45 370.396 1179.22 369.235C1178.99 368.075 1178.41 367.01 1177.57 366.176C1176.73 365.342 1175.66 364.776 1174.5 364.551C1173.34 364.326 1172.14 364.451 1171.05 364.91C1169.96 365.37 1169.03 366.143 1168.38 367.132C1167.73 368.121 1167.39 369.281 1167.4 370.465C1167.41 372.042 1168.04 373.551 1169.16 374.662C1170.28 375.772 1171.79 376.396 1173.37 376.396Z" fill="black"/>
<path d="M1240.53 376.396C1243.83 376.396 1246.5 373.72 1246.5 370.419C1246.5 367.118 1243.83 364.442 1240.53 364.442C1237.24 364.442 1234.56 367.118 1234.56 370.419C1234.56 373.72 1237.24 376.396 1240.53 376.396Z" fill="black"/>
<path d="M1307.7 376.396C1308.88 376.396 1310.04 376.044 1311.02 375.385C1312 374.726 1312.77 373.79 1313.22 372.695C1313.67 371.6 1313.78 370.396 1313.55 369.235C1313.32 368.075 1312.74 367.01 1311.9 366.176C1311.06 365.342 1310 364.776 1308.83 364.551C1307.67 364.326 1306.47 364.451 1305.38 364.91C1304.29 365.37 1303.36 366.143 1302.71 367.132C1302.06 368.121 1301.72 369.281 1301.73 370.465C1301.74 372.042 1302.38 373.551 1303.49 374.662C1304.61 375.772 1306.12 376.396 1307.7 376.396Z" fill="black"/>
<path d="M1374.82 376.396C1376 376.405 1377.16 376.061 1378.15 375.408C1379.14 374.755 1379.91 373.822 1380.37 372.728C1380.83 371.634 1380.95 370.428 1380.72 369.264C1380.49 368.1 1379.92 367.031 1379.09 366.193C1378.25 365.354 1377.18 364.784 1376.02 364.555C1374.85 364.325 1373.65 364.448 1372.56 364.906C1371.46 365.364 1370.53 366.137 1369.88 367.127C1369.23 368.117 1368.88 369.279 1368.89 370.465C1368.91 372.034 1369.53 373.536 1370.64 374.645C1371.75 375.755 1373.25 376.383 1374.82 376.396Z" fill="black"/>
<path d="M1442.03 376.396C1443.21 376.396 1444.37 376.044 1445.35 375.385C1446.33 374.726 1447.1 373.79 1447.55 372.695C1448 371.6 1448.12 370.396 1447.88 369.235C1447.65 368.075 1447.07 367.01 1446.23 366.176C1445.39 365.342 1444.33 364.776 1443.17 364.551C1442 364.326 1440.8 364.451 1439.71 364.91C1438.62 365.37 1437.69 366.143 1437.04 367.132C1436.39 368.121 1436.05 369.281 1436.06 370.465C1436.07 372.042 1436.71 373.551 1437.82 374.662C1438.94 375.772 1440.45 376.396 1442.03 376.396Z" fill="black"/>
<path d="M-2.02973 443.636C-0.454416 443.624 1.05219 442.988 2.16177 441.869C3.27134 440.749 3.89394 439.236 3.8939 437.659C3.90005 436.876 3.75138 436.1 3.45644 435.375C3.16151 434.65 2.72616 433.991 2.17549 433.435C1.62481 432.88 0.969711 432.439 0.247966 432.138C-0.473779 431.837 -1.24789 431.682 -2.02973 431.682C-3.61315 431.682 -5.13171 432.312 -6.25135 433.433C-7.37099 434.554 -8 436.074 -8 437.659C-8 439.244 -7.37099 440.764 -6.25135 441.885C-5.13171 443.006 -3.61315 443.636 -2.02973 443.636Z" fill="black"/>
<path d="M65.1358 443.636C66.7111 443.624 68.2177 442.988 69.3273 441.869C70.4369 440.749 71.0595 439.236 71.0594 437.659C71.0656 436.876 70.9169 436.1 70.622 435.375C70.327 434.65 69.8917 433.991 69.341 433.435C68.7903 432.88 68.1352 432.439 67.4135 432.138C66.6918 431.837 65.9176 431.682 65.1358 431.682C63.5524 431.682 62.0338 432.312 60.9142 433.433C59.7945 434.554 59.1655 436.074 59.1655 437.659C59.1655 439.244 59.7945 440.764 60.9142 441.885C62.0338 443.006 63.5524 443.636 65.1358 443.636Z" fill="black"/>
<path d="M132.301 443.636C133.482 443.636 134.636 443.285 135.618 442.629C136.6 441.972 137.365 441.038 137.817 439.946C138.269 438.854 138.387 437.652 138.157 436.493C137.927 435.333 137.358 434.269 136.523 433.433C135.688 432.597 134.624 432.028 133.466 431.797C132.308 431.566 131.108 431.685 130.017 432.137C128.926 432.589 127.993 433.355 127.337 434.338C126.681 435.321 126.331 436.477 126.331 437.659C126.331 439.244 126.96 440.764 128.08 441.885C129.199 443.006 130.718 443.636 132.301 443.636Z" fill="black"/>
<path d="M199.42 443.636C200.601 443.636 201.756 443.285 202.737 442.629C203.719 441.972 204.484 441.038 204.936 439.946C205.388 438.854 205.506 437.652 205.276 436.493C205.046 435.333 204.477 434.269 203.642 433.433C202.807 432.597 201.743 432.028 200.585 431.797C199.427 431.566 198.227 431.685 197.136 432.137C196.045 432.589 195.112 433.355 194.456 434.338C193.8 435.321 193.45 436.477 193.45 437.659C193.45 439.244 194.079 440.764 195.199 441.885C196.318 443.006 197.837 443.636 199.42 443.636Z" fill="black"/>
<path d="M266.632 443.636C267.813 443.636 268.967 443.285 269.949 442.629C270.931 441.972 271.696 441.038 272.148 439.946C272.6 438.854 272.718 437.652 272.488 436.493C272.258 435.333 271.689 434.269 270.854 433.433C270.019 432.597 268.955 432.028 267.797 431.797C266.639 431.566 265.439 431.685 264.348 432.137C263.257 432.589 262.324 433.355 261.668 434.338C261.012 435.321 260.662 436.477 260.662 437.659C260.662 439.244 261.291 440.764 262.411 441.885C263.53 443.006 265.049 443.636 266.632 443.636Z" fill="black"/>
<path d="M333.798 443.636C334.979 443.636 336.133 443.285 337.115 442.629C338.097 441.972 338.862 441.038 339.314 439.946C339.766 438.854 339.884 437.652 339.653 436.493C339.423 435.333 338.854 434.269 338.02 433.433C337.185 432.597 336.121 432.028 334.963 431.797C333.805 431.566 332.604 431.685 331.513 432.137C330.422 432.589 329.49 433.355 328.834 434.338C328.178 435.321 327.828 436.477 327.828 437.659C327.828 439.244 328.457 440.764 329.576 441.885C330.696 443.006 332.215 443.636 333.798 443.636Z" fill="black"/>
<path d="M400.963 443.636C402.144 443.636 403.299 443.285 404.28 442.629C405.262 441.972 406.027 441.038 406.479 439.946C406.931 438.854 407.049 437.652 406.819 436.493C406.589 435.333 406.02 434.269 405.185 433.433C404.35 432.597 403.286 432.028 402.128 431.797C400.97 431.566 399.77 431.685 398.679 432.137C397.588 432.589 396.655 433.355 395.999 434.338C395.343 435.321 394.993 436.477 394.993 437.659C394.993 439.244 395.622 440.764 396.742 441.885C397.861 443.006 399.38 443.636 400.963 443.636Z" fill="black"/>
<path d="M468.129 443.636C469.31 443.636 470.464 443.285 471.446 442.629C472.428 441.972 473.193 441.038 473.645 439.946C474.097 438.854 474.215 437.652 473.984 436.493C473.754 435.333 473.186 434.269 472.351 433.433C471.516 432.597 470.452 432.028 469.294 431.797C468.136 431.566 466.935 431.685 465.844 432.137C464.753 432.589 463.821 433.355 463.165 434.338C462.509 435.321 462.159 436.477 462.159 437.659C462.159 439.244 462.788 440.764 463.907 441.885C465.027 443.006 466.546 443.636 468.129 443.636Z" fill="black"/>
<path d="M535.248 443.636C536.429 443.636 537.583 443.285 538.565 442.629C539.547 441.972 540.312 441.038 540.764 439.946C541.216 438.854 541.334 437.652 541.104 436.493C540.873 435.333 540.305 434.269 539.47 433.433C538.635 432.597 537.571 432.028 536.413 431.797C535.255 431.566 534.054 431.685 532.963 432.137C531.872 432.589 530.94 433.355 530.284 434.338C529.628 435.321 529.278 436.477 529.278 437.659C529.278 439.244 529.907 440.764 531.026 441.885C532.146 443.006 533.665 443.636 535.248 443.636Z" fill="black"/>
<path d="M602.46 443.636C603.641 443.636 604.795 443.285 605.777 442.629C606.759 441.972 607.524 441.038 607.976 439.946C608.428 438.854 608.546 437.652 608.316 436.493C608.085 435.333 607.517 434.269 606.682 433.433C605.847 432.597 604.783 432.028 603.625 431.797C602.467 431.566 601.266 431.685 600.175 432.137C599.084 432.589 598.152 433.355 597.496 434.338C596.84 435.321 596.49 436.477 596.49 437.659C596.49 439.244 597.119 440.764 598.238 441.885C599.358 443.006 600.877 443.636 602.46 443.636Z" fill="black"/>
<path d="M669.626 443.636C670.806 443.636 671.961 443.285 672.942 442.629C673.924 441.972 674.69 441.038 675.141 439.946C675.593 438.854 675.711 437.652 675.481 436.493C675.251 435.333 674.682 434.269 673.847 433.433C673.012 432.597 671.948 432.028 670.79 431.797C669.632 431.566 668.432 431.685 667.341 432.137C666.25 432.589 665.317 433.355 664.661 434.338C664.005 435.321 663.655 436.477 663.655 437.659C663.655 439.244 664.284 440.764 665.404 441.885C666.524 443.006 668.042 443.636 669.626 443.636Z" fill="black"/>
<path d="M736.792 443.636C737.972 443.636 739.127 443.285 740.108 442.629C741.09 441.972 741.856 441.038 742.307 439.946C742.759 438.854 742.878 437.652 742.647 436.493C742.417 435.333 741.848 434.269 741.013 433.433C740.178 432.597 739.114 432.028 737.956 431.797C736.798 431.566 735.598 431.685 734.507 432.137C733.416 432.589 732.484 433.355 731.828 434.338C731.171 435.321 730.821 436.477 730.821 437.659C730.821 439.244 731.45 440.764 732.57 441.885C733.69 443.006 735.208 443.636 736.792 443.636Z" fill="black"/>
<path d="M803.957 443.636C805.138 443.636 806.292 443.285 807.274 442.629C808.256 441.972 809.021 441.038 809.473 439.946C809.925 438.854 810.043 437.652 809.813 436.493C809.582 435.333 809.014 434.269 808.179 433.433C807.344 432.597 806.28 432.028 805.122 431.797C803.964 431.566 802.763 431.685 801.672 432.137C800.581 432.589 799.649 433.355 798.993 434.338C798.337 435.321 797.987 436.477 797.987 437.659C797.987 439.244 798.616 440.764 799.735 441.885C800.855 443.006 802.374 443.636 803.957 443.636Z" fill="black"/>
<path d="M871.076 443.636C872.257 443.636 873.411 443.285 874.393 442.629C875.374 441.972 876.14 441.038 876.592 439.946C877.043 438.854 877.162 437.652 876.931 436.493C876.701 435.333 876.132 434.269 875.297 433.433C874.462 432.597 873.399 432.028 872.24 431.797C871.082 431.566 869.882 431.685 868.791 432.137C867.7 432.589 866.768 433.355 866.112 434.338C865.456 435.321 865.105 436.477 865.105 437.659C865.105 439.244 865.735 440.764 866.854 441.885C867.974 443.006 869.492 443.636 871.076 443.636Z" fill="black"/>
<path d="M938.288 443.636C939.469 443.636 940.623 443.285 941.605 442.629C942.587 441.972 943.352 441.038 943.804 439.946C944.256 438.854 944.374 437.652 944.144 436.493C943.913 435.333 943.345 434.269 942.51 433.433C941.675 432.597 940.611 432.028 939.453 431.797C938.295 431.566 937.094 431.685 936.003 432.137C934.912 432.589 933.98 433.355 933.324 434.338C932.668 435.321 932.318 436.477 932.318 437.659C932.318 439.244 932.947 440.764 934.066 441.885C935.186 443.006 936.705 443.636 938.288 443.636Z" fill="black"/>
<path d="M1005.45 443.636C1006.63 443.636 1007.79 443.285 1008.77 442.629C1009.75 441.972 1010.52 441.038 1010.97 439.946C1011.42 438.854 1011.54 437.652 1011.31 436.493C1011.08 435.333 1010.51 434.269 1009.68 433.433C1008.84 432.597 1007.78 432.028 1006.62 431.797C1005.46 431.566 1004.26 431.685 1003.17 432.137C1002.08 432.589 1001.15 433.355 1000.49 434.338C999.834 435.321 999.483 436.477 999.483 437.659C999.483 439.244 1000.11 440.764 1001.23 441.885C1002.35 443.006 1003.87 443.636 1005.45 443.636Z" fill="black"/>
<path d="M1072.62 443.636C1073.8 443.636 1074.95 443.285 1075.94 442.629C1076.92 441.972 1077.68 441.038 1078.14 439.946C1078.59 438.854 1078.71 437.652 1078.47 436.493C1078.24 435.333 1077.68 434.269 1076.84 433.433C1076.01 432.597 1074.94 432.028 1073.78 431.797C1072.63 431.566 1071.43 431.685 1070.33 432.137C1069.24 432.589 1068.31 433.355 1067.66 434.338C1067 435.321 1066.65 436.477 1066.65 437.659C1066.65 439.244 1067.28 440.764 1068.4 441.885C1069.52 443.006 1071.04 443.636 1072.62 443.636Z" fill="black"/>
<path d="M1139.78 443.636C1140.97 443.636 1142.12 443.285 1143.1 442.629C1144.08 441.972 1144.85 441.038 1145.3 439.946C1145.75 438.854 1145.87 437.652 1145.64 436.493C1145.41 435.333 1144.84 434.269 1144.01 433.433C1143.17 432.597 1142.11 432.028 1140.95 431.797C1139.79 431.566 1138.59 431.685 1137.5 432.137C1136.41 432.589 1135.48 433.355 1134.82 434.338C1134.16 435.321 1133.81 436.477 1133.81 437.659C1133.81 439.244 1134.44 440.764 1135.56 441.885C1136.68 443.006 1138.2 443.636 1139.78 443.636Z" fill="black"/>
<path d="M1206.9 443.636C1208.08 443.636 1209.24 443.285 1210.22 442.629C1211.2 441.972 1211.97 441.038 1212.42 439.946C1212.87 438.854 1212.99 437.652 1212.76 436.493C1212.53 435.333 1211.96 434.269 1211.13 433.433C1210.29 432.597 1209.23 432.028 1208.07 431.797C1206.91 431.566 1205.71 431.685 1204.62 432.137C1203.53 432.589 1202.6 433.355 1201.94 434.338C1201.28 435.321 1200.93 436.477 1200.93 437.659C1200.93 439.244 1201.56 440.764 1202.68 441.885C1203.8 443.006 1205.32 443.636 1206.9 443.636Z" fill="black"/>
<path d="M1274.12 443.636C1275.3 443.636 1276.45 443.285 1277.43 442.629C1278.41 441.972 1279.18 441.038 1279.63 439.946C1280.08 438.854 1280.2 437.652 1279.97 436.493C1279.74 435.333 1279.17 434.269 1278.34 433.433C1277.5 432.597 1276.44 432.028 1275.28 431.797C1274.12 431.566 1272.92 431.685 1271.83 432.137C1270.74 432.589 1269.81 433.355 1269.15 434.338C1268.5 435.321 1268.15 436.477 1268.15 437.659C1268.15 439.244 1268.77 440.764 1269.89 441.885C1271.01 443.006 1272.53 443.636 1274.12 443.636Z" fill="black"/>
<path d="M1341.28 443.636C1342.46 443.636 1343.62 443.285 1344.6 442.629C1345.58 441.972 1346.35 441.038 1346.8 439.946C1347.25 438.854 1347.37 437.652 1347.14 436.493C1346.91 435.333 1346.34 434.269 1345.5 433.433C1344.67 432.597 1343.6 432.028 1342.45 431.797C1341.29 431.566 1340.09 431.685 1339 432.137C1337.91 432.589 1336.97 433.355 1336.32 434.338C1335.66 435.321 1335.31 436.477 1335.31 437.659C1335.31 439.244 1335.94 440.764 1337.06 441.885C1338.18 443.006 1339.7 443.636 1341.28 443.636Z" fill="black"/>
<path d="M1408.45 443.636C1409.63 443.636 1410.78 443.285 1411.76 442.629C1412.75 441.972 1413.51 441.038 1413.96 439.946C1414.41 438.854 1414.53 437.652 1414.3 436.493C1414.07 435.333 1413.5 434.269 1412.67 433.433C1411.83 432.597 1410.77 432.028 1409.61 431.797C1408.45 431.566 1407.25 431.685 1406.16 432.137C1405.07 432.589 1404.14 433.355 1403.48 434.338C1402.83 435.321 1402.48 436.477 1402.48 437.659C1402.48 439.244 1403.11 440.764 1404.23 441.885C1405.34 443.006 1406.86 443.636 1408.45 443.636Z" fill="black"/>
</g>
</g>
</g>
<defs>
<clipPath id="clip0_1371_1520">
<rect width="1440" height="470" fill="white"/>
</clipPath>
<clipPath id="clip1_1371_1520">
<rect width="1456" height="1424" fill="white" transform="translate(-8 -39)"/>
</clipPath>
</defs>
</svg>
